<svg xmlns="http://www.w3.org/2000/svg" width="960" height="586" viewBox="0 0 960 586">
<style>text{font-family:Arial,sans-serif;font-size:12px}.t{font-size:16px;font-weight:700}.ax{stroke:#888;stroke-width:1}.bar{fill:#3568a8}.v{fill:#222}</style>
<text class="t" x="0" y="20">recall (support-weighted)</text>
<line class="ax" x1="300" y1="34" x2="300" y2="576"/>
<text x="0" y="57">logistic_regression</text>
<rect class="bar" x="300" y="42" width="208" height="19" rx="2"/>
<text class="v" x="880" y="57">0.365</text>
<text x="0" y="85">logistic_interactions</text>
<rect class="bar" x="300" y="70" width="207" height="19" rx="2"/>
<text class="v" x="880" y="85">0.364</text>
<text x="0" y="113">or_1_of_4</text>
<rect class="bar" x="300" y="98" width="111" height="19" rx="2"/>
<text class="v" x="880" y="113">0.195</text>
<text x="0" y="141">weighted_fire_specificity_silence_sensitivity</text>
<rect class="bar" x="300" y="126" width="109" height="19" rx="2"/>
<text class="v" x="880" y="141">0.192</text>
<text x="0" y="169">weighted_fire_ppv_silence_sensitivity</text>
<rect class="bar" x="300" y="154" width="84" height="19" rx="2"/>
<text class="v" x="880" y="169">0.148</text>
<text x="0" y="197">weighted_fire_specificity_silence_npv</text>
<rect class="bar" x="300" y="182" width="64" height="19" rx="2"/>
<text class="v" x="880" y="197">0.113</text>
<text x="0" y="225">tool:bandit</text>
<rect class="bar" x="300" y="210" width="62" height="19" rx="2"/>
<text class="v" x="880" y="225">0.110</text>
<text x="0" y="253">tool:semgrep</text>
<rect class="bar" x="300" y="238" width="56" height="19" rx="2"/>
<text class="v" x="880" y="253">0.098</text>
<text x="0" y="281">noisy_or</text>
<rect class="bar" x="300" y="266" width="48" height="19" rx="2"/>
<text class="v" x="880" y="281">0.086</text>
<text x="0" y="309">traditional_2_of_supported</text>
<rect class="bar" x="300" y="294" width="47" height="19" rx="2"/>
<text class="v" x="880" y="309">0.084</text>
<text x="0" y="337">traditional_2_of_4</text>
<rect class="bar" x="300" y="322" width="47" height="19" rx="2"/>
<text class="v" x="880" y="337">0.084</text>
<text x="0" y="365">naive_bayes</text>
<rect class="bar" x="300" y="350" width="47" height="19" rx="2"/>
<text class="v" x="880" y="365">0.083</text>
<text x="0" y="393">tool:codeql</text>
<rect class="bar" x="300" y="378" width="45" height="19" rx="2"/>
<text class="v" x="880" y="393">0.080</text>
<text x="0" y="421">bks</text>
<rect class="bar" x="300" y="406" width="34" height="19" rx="2"/>
<text class="v" x="880" y="421">0.061</text>
<text x="0" y="449">weighted_fire_ppv_silence_npv</text>
<rect class="bar" x="300" y="434" width="31" height="19" rx="2"/>
<text class="v" x="880" y="449">0.055</text>
<text x="0" y="477">dst_dempster</text>
<rect class="bar" x="300" y="462" width="12" height="19" rx="2"/>
<text class="v" x="880" y="477">0.023</text>
<text x="0" y="505">dst_pcr6</text>
<rect class="bar" x="300" y="490" width="12" height="19" rx="2"/>
<text class="v" x="880" y="505">0.023</text>
<text x="0" y="533">dst_yager</text>
<rect class="bar" x="300" y="518" width="12" height="19" rx="2"/>
<text class="v" x="880" y="533">0.023</text>
<text x="0" y="561">tool:pylint</text>
<rect class="bar" x="300" y="546" width="7" height="19" rx="2"/>
<text class="v" x="880" y="561">0.014</text>
</svg>