<svg xmlns="http://www.w3.org/2000/svg" width="960" height="586" viewBox="0 0 960 586">
<style>text{font-family:Arial,sans-serif;font-size:12px}.t{font-size:16px;font-weight:700}.ax{stroke:#888;stroke-width:1}.bar{fill:#3568a8}.v{fill:#222}</style>
<text class="t" x="0" y="20">precision best variant per strategy (support-weighted)</text>
<line class="ax" x1="367" y1="34" x2="367" y2="576"/>
<text x="0" y="57">bks (tau=0.8)</text>
<rect class="bar" x="367" y="42" width="503" height="19" rx="2"/>
<text class="v" x="880" y="57">1.000</text>
<text x="0" y="85">random_forest (tau=0.9)</text>
<rect class="bar" x="367" y="70" width="233" height="19" rx="2"/>
<text class="v" x="880" y="85">0.465</text>
<text x="0" y="113">tool:ikos</text>
<rect class="bar" x="367" y="98" width="215" height="19" rx="2"/>
<text class="v" x="880" y="113">0.428</text>
<text x="0" y="141">naive_bayes (tau=0.8)</text>
<rect class="bar" x="367" y="126" width="215" height="19" rx="2"/>
<text class="v" x="880" y="141">0.428</text>
<text x="0" y="169">gradient_boosting (tau=0.9)</text>
<rect class="bar" x="367" y="154" width="153" height="19" rx="2"/>
<text class="v" x="880" y="169">0.306</text>
<text x="0" y="197">tool:semgrep</text>
<rect class="bar" x="367" y="182" width="144" height="19" rx="2"/>
<text class="v" x="880" y="197">0.288</text>
<text x="0" y="225">decision_tree (tau=0.9)</text>
<rect class="bar" x="367" y="210" width="143" height="19" rx="2"/>
<text class="v" x="880" y="225">0.286</text>
<text x="0" y="253">logistic_interactions (tau=0.9)</text>
<rect class="bar" x="367" y="238" width="141" height="19" rx="2"/>
<text class="v" x="880" y="253">0.281</text>
<text x="0" y="281">tool:cppcheck</text>
<rect class="bar" x="367" y="266" width="136" height="19" rx="2"/>
<text class="v" x="880" y="281">0.272</text>
<text x="0" y="309">logistic_regression (tau=0.9)</text>
<rect class="bar" x="367" y="294" width="114" height="19" rx="2"/>
<text class="v" x="880" y="309">0.228</text>
<text x="0" y="337">tool:codeql</text>
<rect class="bar" x="367" y="322" width="109" height="19" rx="2"/>
<text class="v" x="880" y="337">0.218</text>
<text x="0" y="365">tool:joern</text>
<rect class="bar" x="367" y="350" width="108" height="19" rx="2"/>
<text class="v" x="880" y="365">0.217</text>
<text x="0" y="393">traditional_2_of_6</text>
<rect class="bar" x="367" y="378" width="93" height="19" rx="2"/>
<text class="v" x="880" y="393">0.186</text>
<text x="0" y="421">tool:flawfinder</text>
<rect class="bar" x="367" y="406" width="81" height="19" rx="2"/>
<text class="v" x="880" y="421">0.161</text>
<text x="0" y="449">or_1_of_6</text>
<rect class="bar" x="367" y="434" width="76" height="19" rx="2"/>
<text class="v" x="880" y="449">0.153</text>
<text x="0" y="477">dst_yager (tau=0.6, cal=specificity/sensitivity)</text>
<rect class="bar" x="367" y="462" width="70" height="19" rx="2"/>
<text class="v" x="880" y="477">0.141</text>
<text x="0" y="505">dst_pcr6 (tau=0.6, cal=specificity/sensitivity)</text>
<rect class="bar" x="367" y="490" width="70" height="19" rx="2"/>
<text class="v" x="880" y="505">0.141</text>
<text x="0" y="533">weighted (tau=0.1, cal=specificity/sensitivity)</text>
<rect class="bar" x="367" y="518" width="70" height="19" rx="2"/>
<text class="v" x="880" y="533">0.141</text>
<text x="0" y="561">dst_dempster (tau=0.6, cal=specificity/sensitivity)</text>
<rect class="bar" x="367" y="546" width="70" height="19" rx="2"/>
<text class="v" x="880" y="561">0.141</text>
</svg>