<svg xmlns="http://www.w3.org/2000/svg" width="960" height="2994" viewBox="0 0 960 2994">
<style>text{font-family:Arial,sans-serif;font-size:12px}.t{font-size:16px;font-weight:700}.ax{stroke:#888;stroke-width:1}.bar{fill:#3568a8}.v{fill:#222}</style>
<text class="t" x="0" y="20">pr_auc (support-weighted)</text>
<line class="ax" x1="409" y1="34" x2="409" y2="2984"/>
<text x="0" y="57">bks_tau_0_2</text>
<rect class="bar" x="409" y="42" width="85" height="19" rx="2"/>
<text class="v" x="880" y="57">0.186</text>
<text x="0" y="85">bks_tau_0_1</text>
<rect class="bar" x="409" y="70" width="85" height="19" rx="2"/>
<text class="v" x="880" y="85">0.186</text>
<text x="0" y="113">bks_tau_0_4</text>
<rect class="bar" x="409" y="98" width="85" height="19" rx="2"/>
<text class="v" x="880" y="113">0.186</text>
<text x="0" y="141">bks_tau_0_5</text>
<rect class="bar" x="409" y="126" width="85" height="19" rx="2"/>
<text class="v" x="880" y="141">0.186</text>
<text x="0" y="169">bks_tau_0_6</text>
<rect class="bar" x="409" y="154" width="85" height="19" rx="2"/>
<text class="v" x="880" y="169">0.186</text>
<text x="0" y="197">bks_tau_0_7</text>
<rect class="bar" x="409" y="182" width="85" height="19" rx="2"/>
<text class="v" x="880" y="197">0.186</text>
<text x="0" y="225">bks_tau_0_8</text>
<rect class="bar" x="409" y="210" width="85" height="19" rx="2"/>
<text class="v" x="880" y="225">0.186</text>
<text x="0" y="253">bks_tau_0_9</text>
<rect class="bar" x="409" y="238" width="85" height="19" rx="2"/>
<text class="v" x="880" y="253">0.186</text>
<text x="0" y="281">bks_tau_0_3</text>
<rect class="bar" x="409" y="266" width="85" height="19" rx="2"/>
<text class="v" x="880" y="281">0.186</text>
<text x="0" y="309">random_forest_tau_0_2</text>
<rect class="bar" x="409" y="294" width="85" height="19" rx="2"/>
<text class="v" x="880" y="309">0.186</text>
<text x="0" y="337">random_forest_tau_0_8</text>
<rect class="bar" x="409" y="322" width="85" height="19" rx="2"/>
<text class="v" x="880" y="337">0.186</text>
<text x="0" y="365">random_forest_tau_0_7</text>
<rect class="bar" x="409" y="350" width="85" height="19" rx="2"/>
<text class="v" x="880" y="365">0.186</text>
<text x="0" y="393">random_forest_tau_0_6</text>
<rect class="bar" x="409" y="378" width="85" height="19" rx="2"/>
<text class="v" x="880" y="393">0.186</text>
<text x="0" y="421">random_forest_tau_0_5</text>
<rect class="bar" x="409" y="406" width="85" height="19" rx="2"/>
<text class="v" x="880" y="421">0.186</text>
<text x="0" y="449">random_forest_tau_0_4</text>
<rect class="bar" x="409" y="434" width="85" height="19" rx="2"/>
<text class="v" x="880" y="449">0.186</text>
<text x="0" y="477">random_forest_tau_0_3</text>
<rect class="bar" x="409" y="462" width="85" height="19" rx="2"/>
<text class="v" x="880" y="477">0.186</text>
<text x="0" y="505">random_forest_tau_0_1</text>
<rect class="bar" x="409" y="490" width="85" height="19" rx="2"/>
<text class="v" x="880" y="505">0.186</text>
<text x="0" y="533">random_forest_tau_0_9</text>
<rect class="bar" x="409" y="518" width="85" height="19" rx="2"/>
<text class="v" x="880" y="533">0.186</text>
<text x="0" y="561">logistic_interactions_tau_0_5</text>
<rect class="bar" x="409" y="546" width="85" height="19" rx="2"/>
<text class="v" x="880" y="561">0.186</text>
<text x="0" y="589">logistic_interactions_tau_0_1</text>
<rect class="bar" x="409" y="574" width="85" height="19" rx="2"/>
<text class="v" x="880" y="589">0.186</text>
<text x="0" y="617">logistic_interactions_tau_0_2</text>
<rect class="bar" x="409" y="602" width="85" height="19" rx="2"/>
<text class="v" x="880" y="617">0.186</text>
<text x="0" y="645">logistic_interactions_tau_0_3</text>
<rect class="bar" x="409" y="630" width="85" height="19" rx="2"/>
<text class="v" x="880" y="645">0.186</text>
<text x="0" y="673">logistic_interactions_tau_0_4</text>
<rect class="bar" x="409" y="658" width="85" height="19" rx="2"/>
<text class="v" x="880" y="673">0.186</text>
<text x="0" y="701">logistic_interactions_tau_0_6</text>
<rect class="bar" x="409" y="686" width="85" height="19" rx="2"/>
<text class="v" x="880" y="701">0.186</text>
<text x="0" y="729">logistic_interactions_tau_0_7</text>
<rect class="bar" x="409" y="714" width="85" height="19" rx="2"/>
<text class="v" x="880" y="729">0.186</text>
<text x="0" y="757">logistic_interactions_tau_0_8</text>
<rect class="bar" x="409" y="742" width="85" height="19" rx="2"/>
<text class="v" x="880" y="757">0.186</text>
<text x="0" y="785">logistic_interactions_tau_0_9</text>
<rect class="bar" x="409" y="770" width="85" height="19" rx="2"/>
<text class="v" x="880" y="785">0.186</text>
<text x="0" y="813">gradient_boosting_tau_0_2</text>
<rect class="bar" x="409" y="798" width="85" height="19" rx="2"/>
<text class="v" x="880" y="813">0.186</text>
<text x="0" y="841">gradient_boosting_tau_0_3</text>
<rect class="bar" x="409" y="826" width="85" height="19" rx="2"/>
<text class="v" x="880" y="841">0.186</text>
<text x="0" y="869">gradient_boosting_tau_0_4</text>
<rect class="bar" x="409" y="854" width="85" height="19" rx="2"/>
<text class="v" x="880" y="869">0.186</text>
<text x="0" y="897">gradient_boosting_tau_0_5</text>
<rect class="bar" x="409" y="882" width="85" height="19" rx="2"/>
<text class="v" x="880" y="897">0.186</text>
<text x="0" y="925">gradient_boosting_tau_0_6</text>
<rect class="bar" x="409" y="910" width="85" height="19" rx="2"/>
<text class="v" x="880" y="925">0.186</text>
<text x="0" y="953">gradient_boosting_tau_0_7</text>
<rect class="bar" x="409" y="938" width="85" height="19" rx="2"/>
<text class="v" x="880" y="953">0.186</text>
<text x="0" y="981">gradient_boosting_tau_0_8</text>
<rect class="bar" x="409" y="966" width="85" height="19" rx="2"/>
<text class="v" x="880" y="981">0.186</text>
<text x="0" y="1009">gradient_boosting_tau_0_1</text>
<rect class="bar" x="409" y="994" width="85" height="19" rx="2"/>
<text class="v" x="880" y="1009">0.186</text>
<text x="0" y="1037">gradient_boosting_tau_0_9</text>
<rect class="bar" x="409" y="1022" width="85" height="19" rx="2"/>
<text class="v" x="880" y="1037">0.186</text>
<text x="0" y="1065">logistic_regression_tau_0_4</text>
<rect class="bar" x="409" y="1050" width="84" height="19" rx="2"/>
<text class="v" x="880" y="1065">0.184</text>
<text x="0" y="1093">logistic_regression_tau_0_5</text>
<rect class="bar" x="409" y="1078" width="84" height="19" rx="2"/>
<text class="v" x="880" y="1093">0.184</text>
<text x="0" y="1121">logistic_regression_tau_0_3</text>
<rect class="bar" x="409" y="1106" width="84" height="19" rx="2"/>
<text class="v" x="880" y="1121">0.184</text>
<text x="0" y="1149">logistic_regression_tau_0_2</text>
<rect class="bar" x="409" y="1134" width="84" height="19" rx="2"/>
<text class="v" x="880" y="1149">0.184</text>
<text x="0" y="1177">logistic_regression_tau_0_1</text>
<rect class="bar" x="409" y="1162" width="84" height="19" rx="2"/>
<text class="v" x="880" y="1177">0.184</text>
<text x="0" y="1205">logistic_regression_tau_0_6</text>
<rect class="bar" x="409" y="1190" width="84" height="19" rx="2"/>
<text class="v" x="880" y="1205">0.184</text>
<text x="0" y="1233">logistic_regression_tau_0_7</text>
<rect class="bar" x="409" y="1218" width="84" height="19" rx="2"/>
<text class="v" x="880" y="1233">0.184</text>
<text x="0" y="1261">logistic_regression_tau_0_8</text>
<rect class="bar" x="409" y="1246" width="84" height="19" rx="2"/>
<text class="v" x="880" y="1261">0.184</text>
<text x="0" y="1289">logistic_regression_tau_0_9</text>
<rect class="bar" x="409" y="1274" width="84" height="19" rx="2"/>
<text class="v" x="880" y="1289">0.184</text>
<text x="0" y="1317">decision_tree_tau_0_1</text>
<rect class="bar" x="409" y="1302" width="80" height="19" rx="2"/>
<text class="v" x="880" y="1317">0.175</text>
<text x="0" y="1345">decision_tree_tau_0_3</text>
<rect class="bar" x="409" y="1330" width="80" height="19" rx="2"/>
<text class="v" x="880" y="1345">0.175</text>
<text x="0" y="1373">decision_tree_tau_0_4</text>
<rect class="bar" x="409" y="1358" width="80" height="19" rx="2"/>
<text class="v" x="880" y="1373">0.175</text>
<text x="0" y="1401">decision_tree_tau_0_5</text>
<rect class="bar" x="409" y="1386" width="80" height="19" rx="2"/>
<text class="v" x="880" y="1401">0.175</text>
<text x="0" y="1429">decision_tree_tau_0_2</text>
<rect class="bar" x="409" y="1414" width="80" height="19" rx="2"/>
<text class="v" x="880" y="1429">0.175</text>
<text x="0" y="1457">decision_tree_tau_0_6</text>
<rect class="bar" x="409" y="1442" width="80" height="19" rx="2"/>
<text class="v" x="880" y="1457">0.175</text>
<text x="0" y="1485">decision_tree_tau_0_7</text>
<rect class="bar" x="409" y="1470" width="80" height="19" rx="2"/>
<text class="v" x="880" y="1485">0.175</text>
<text x="0" y="1513">decision_tree_tau_0_8</text>
<rect class="bar" x="409" y="1498" width="80" height="19" rx="2"/>
<text class="v" x="880" y="1513">0.175</text>
<text x="0" y="1541">decision_tree_tau_0_9</text>
<rect class="bar" x="409" y="1526" width="80" height="19" rx="2"/>
<text class="v" x="880" y="1541">0.175</text>
<text x="0" y="1569">naive_bayes_tau_0_8</text>
<rect class="bar" x="409" y="1554" width="77" height="19" rx="2"/>
<text class="v" x="880" y="1569">0.169</text>
<text x="0" y="1597">naive_bayes_tau_0_7</text>
<rect class="bar" x="409" y="1582" width="77" height="19" rx="2"/>
<text class="v" x="880" y="1597">0.169</text>
<text x="0" y="1625">naive_bayes_tau_0_6</text>
<rect class="bar" x="409" y="1610" width="77" height="19" rx="2"/>
<text class="v" x="880" y="1625">0.169</text>
<text x="0" y="1653">naive_bayes_tau_0_5</text>
<rect class="bar" x="409" y="1638" width="77" height="19" rx="2"/>
<text class="v" x="880" y="1653">0.169</text>
<text x="0" y="1681">naive_bayes_tau_0_4</text>
<rect class="bar" x="409" y="1666" width="77" height="19" rx="2"/>
<text class="v" x="880" y="1681">0.169</text>
<text x="0" y="1709">naive_bayes_tau_0_3</text>
<rect class="bar" x="409" y="1694" width="77" height="19" rx="2"/>
<text class="v" x="880" y="1709">0.169</text>
<text x="0" y="1737">naive_bayes_tau_0_2</text>
<rect class="bar" x="409" y="1722" width="77" height="19" rx="2"/>
<text class="v" x="880" y="1737">0.169</text>
<text x="0" y="1765">naive_bayes_tau_0_1</text>
<rect class="bar" x="409" y="1750" width="77" height="19" rx="2"/>
<text class="v" x="880" y="1765">0.169</text>
<text x="0" y="1793">naive_bayes_tau_0_9</text>
<rect class="bar" x="409" y="1778" width="77" height="19" rx="2"/>
<text class="v" x="880" y="1793">0.169</text>
<text x="0" y="1821">dst_pcr6_fire_specificity_silence_sensitivity_tau_0_4</text>
<rect class="bar" x="409" y="1806" width="76" height="19" rx="2"/>
<text class="v" x="880" y="1821">0.165</text>
<text x="0" y="1849">dst_pcr6_fire_specificity_silence_sensitivity_tau_0_3</text>
<rect class="bar" x="409" y="1834" width="76" height="19" rx="2"/>
<text class="v" x="880" y="1849">0.165</text>
<text x="0" y="1877">dst_pcr6_fire_specificity_silence_sensitivity_tau_0_5</text>
<rect class="bar" x="409" y="1862" width="76" height="19" rx="2"/>
<text class="v" x="880" y="1877">0.165</text>
<text x="0" y="1905">dst_pcr6_fire_specificity_silence_sensitivity_tau_0_6</text>
<rect class="bar" x="409" y="1890" width="76" height="19" rx="2"/>
<text class="v" x="880" y="1905">0.165</text>
<text x="0" y="1933">dst_pcr6_fire_specificity_silence_sensitivity_tau_0_7</text>
<rect class="bar" x="409" y="1918" width="76" height="19" rx="2"/>
<text class="v" x="880" y="1933">0.165</text>
<text x="0" y="1961">dst_pcr6_fire_specificity_silence_sensitivity_tau_0_8</text>
<rect class="bar" x="409" y="1946" width="76" height="19" rx="2"/>
<text class="v" x="880" y="1961">0.165</text>
<text x="0" y="1989">dst_pcr6_fire_specificity_silence_sensitivity_tau_0_9</text>
<rect class="bar" x="409" y="1974" width="76" height="19" rx="2"/>
<text class="v" x="880" y="1989">0.165</text>
<text x="0" y="2017">dst_pcr6_fire_specificity_silence_sensitivity_tau_0_1</text>
<rect class="bar" x="409" y="2002" width="76" height="19" rx="2"/>
<text class="v" x="880" y="2017">0.165</text>
<text x="0" y="2045">dst_pcr6_fire_specificity_silence_sensitivity_tau_0_2</text>
<rect class="bar" x="409" y="2030" width="76" height="19" rx="2"/>
<text class="v" x="880" y="2045">0.165</text>
<text x="0" y="2073">dst_yager_fire_specificity_silence_sensitivity_tau_0_4</text>
<rect class="bar" x="409" y="2058" width="75" height="19" rx="2"/>
<text class="v" x="880" y="2073">0.165</text>
<text x="0" y="2101">dst_yager_fire_specificity_silence_sensitivity_tau_0_3</text>
<rect class="bar" x="409" y="2086" width="75" height="19" rx="2"/>
<text class="v" x="880" y="2101">0.165</text>
<text x="0" y="2129">dst_yager_fire_specificity_silence_sensitivity_tau_0_8</text>
<rect class="bar" x="409" y="2114" width="75" height="19" rx="2"/>
<text class="v" x="880" y="2129">0.165</text>
<text x="0" y="2157">dst_yager_fire_specificity_silence_sensitivity_tau_0_5</text>
<rect class="bar" x="409" y="2142" width="75" height="19" rx="2"/>
<text class="v" x="880" y="2157">0.165</text>
<text x="0" y="2185">dst_yager_fire_specificity_silence_sensitivity_tau_0_1</text>
<rect class="bar" x="409" y="2170" width="75" height="19" rx="2"/>
<text class="v" x="880" y="2185">0.165</text>
<text x="0" y="2213">dst_yager_fire_specificity_silence_sensitivity_tau_0_2</text>
<rect class="bar" x="409" y="2198" width="75" height="19" rx="2"/>
<text class="v" x="880" y="2213">0.165</text>
<text x="0" y="2241">dst_yager_fire_specificity_silence_sensitivity_tau_0_6</text>
<rect class="bar" x="409" y="2226" width="75" height="19" rx="2"/>
<text class="v" x="880" y="2241">0.165</text>
<text x="0" y="2269">dst_yager_fire_specificity_silence_sensitivity_tau_0_7</text>
<rect class="bar" x="409" y="2254" width="75" height="19" rx="2"/>
<text class="v" x="880" y="2269">0.165</text>
<text x="0" y="2297">dst_yager_fire_specificity_silence_sensitivity_tau_0_9</text>
<rect class="bar" x="409" y="2282" width="75" height="19" rx="2"/>
<text class="v" x="880" y="2297">0.165</text>
<text x="0" y="2325">weighted_fire_specificity_silence_sensitivity_tau_0_7</text>
<rect class="bar" x="409" y="2310" width="75" height="19" rx="2"/>
<text class="v" x="880" y="2325">0.163</text>
<text x="0" y="2353">weighted_fire_specificity_silence_sensitivity_tau_0_6</text>
<rect class="bar" x="409" y="2338" width="75" height="19" rx="2"/>
<text class="v" x="880" y="2353">0.163</text>
<text x="0" y="2381">weighted_fire_specificity_silence_sensitivity_tau_0_5</text>
<rect class="bar" x="409" y="2366" width="75" height="19" rx="2"/>
<text class="v" x="880" y="2381">0.163</text>
<text x="0" y="2409">weighted_fire_specificity_silence_sensitivity_tau_0_8</text>
<rect class="bar" x="409" y="2394" width="75" height="19" rx="2"/>
<text class="v" x="880" y="2409">0.163</text>
<text x="0" y="2437">weighted_fire_specificity_silence_sensitivity_tau_0_9</text>
<rect class="bar" x="409" y="2422" width="75" height="19" rx="2"/>
<text class="v" x="880" y="2437">0.163</text>
<text x="0" y="2465">weighted_fire_specificity_silence_sensitivity_tau_0_4</text>
<rect class="bar" x="409" y="2450" width="75" height="19" rx="2"/>
<text class="v" x="880" y="2465">0.163</text>
<text x="0" y="2493">weighted_fire_specificity_silence_sensitivity_tau_0_3</text>
<rect class="bar" x="409" y="2478" width="75" height="19" rx="2"/>
<text class="v" x="880" y="2493">0.163</text>
<text x="0" y="2521">weighted_fire_specificity_silence_sensitivity_tau_0_2</text>
<rect class="bar" x="409" y="2506" width="75" height="19" rx="2"/>
<text class="v" x="880" y="2521">0.163</text>
<text x="0" y="2549">weighted_fire_specificity_silence_sensitivity_tau_0_1</text>
<rect class="bar" x="409" y="2534" width="75" height="19" rx="2"/>
<text class="v" x="880" y="2549">0.163</text>
<text x="0" y="2577">dst_dempster_fire_specificity_silence_sensitivity_tau_0_9</text>
<rect class="bar" x="409" y="2562" width="75" height="19" rx="2"/>
<text class="v" x="880" y="2577">0.163</text>
<text x="0" y="2605">dst_dempster_fire_specificity_silence_sensitivity_tau_0_2</text>
<rect class="bar" x="409" y="2590" width="75" height="19" rx="2"/>
<text class="v" x="880" y="2605">0.163</text>
<text x="0" y="2633">dst_dempster_fire_specificity_silence_sensitivity_tau_0_1</text>
<rect class="bar" x="409" y="2618" width="75" height="19" rx="2"/>
<text class="v" x="880" y="2633">0.163</text>
<text x="0" y="2661">dst_dempster_fire_specificity_silence_sensitivity_tau_0_8</text>
<rect class="bar" x="409" y="2646" width="75" height="19" rx="2"/>
<text class="v" x="880" y="2661">0.163</text>
<text x="0" y="2689">dst_dempster_fire_specificity_silence_sensitivity_tau_0_3</text>
<rect class="bar" x="409" y="2674" width="75" height="19" rx="2"/>
<text class="v" x="880" y="2689">0.163</text>
<text x="0" y="2717">dst_dempster_fire_specificity_silence_sensitivity_tau_0_4</text>
<rect class="bar" x="409" y="2702" width="75" height="19" rx="2"/>
<text class="v" x="880" y="2717">0.163</text>
<text x="0" y="2745">dst_dempster_fire_specificity_silence_sensitivity_tau_0_5</text>
<rect class="bar" x="409" y="2730" width="75" height="19" rx="2"/>
<text class="v" x="880" y="2745">0.163</text>
<text x="0" y="2773">dst_dempster_fire_specificity_silence_sensitivity_tau_0_6</text>
<rect class="bar" x="409" y="2758" width="75" height="19" rx="2"/>
<text class="v" x="880" y="2773">0.163</text>
<text x="0" y="2801">dst_dempster_fire_specificity_silence_sensitivity_tau_0_7</text>
<rect class="bar" x="409" y="2786" width="75" height="19" rx="2"/>
<text class="v" x="880" y="2801">0.163</text>
<text x="0" y="2829">traditional_2_of_4</text>
<rect class="bar" x="409" y="2814" width="73" height="19" rx="2"/>
<text class="v" x="880" y="2829">0.159</text>
<text x="0" y="2857">or_1_of_4</text>
<rect class="bar" x="409" y="2842" width="70" height="19" rx="2"/>
<text class="v" x="880" y="2857">0.153</text>
<text x="0" y="2885">tool:bandit</text>
<rect class="bar" x="409" y="2870" width="65" height="19" rx="2"/>
<text class="v" x="880" y="2885">0.143</text>
<text x="0" y="2913">tool:semgrep</text>
<rect class="bar" x="409" y="2898" width="57" height="19" rx="2"/>
<text class="v" x="880" y="2913">0.124</text>
<text x="0" y="2941">tool:codeql</text>
<rect class="bar" x="409" y="2926" width="47" height="19" rx="2"/>
<text class="v" x="880" y="2941">0.102</text>
<text x="0" y="2969">tool:pylint</text>
<rect class="bar" x="409" y="2954" width="38" height="19" rx="2"/>
<text class="v" x="880" y="2969">0.082</text>
</svg>