<svg xmlns="http://www.w3.org/2000/svg" width="960" height="3050" viewBox="0 0 960 3050">
<style>text{font-family:Arial,sans-serif;font-size:12px}.t{font-size:16px;font-weight:700}.ax{stroke:#888;stroke-width:1}.bar{fill:#3568a8}.v{fill:#222}</style>
<text class="t" x="0" y="20">recall (support-weighted)</text>
<line class="ax" x1="409" y1="34" x2="409" y2="3040"/>
<text x="0" y="57">logistic_interactions_tau_0_2</text>
<rect class="bar" x="409" y="42" width="460" height="19" rx="2"/>
<text class="v" x="880" y="57">1.000</text>
<text x="0" y="85">logistic_interactions_tau_0_1</text>
<rect class="bar" x="409" y="70" width="460" height="19" rx="2"/>
<text class="v" x="880" y="85">1.000</text>
<text x="0" y="113">logistic_regression_tau_0_1</text>
<rect class="bar" x="409" y="98" width="460" height="19" rx="2"/>
<text class="v" x="880" y="113">1.000</text>
<text x="0" y="141">logistic_regression_tau_0_2</text>
<rect class="bar" x="409" y="126" width="460" height="19" rx="2"/>
<text class="v" x="880" y="141">1.000</text>
<text x="0" y="169">logistic_interactions_tau_0_3</text>
<rect class="bar" x="409" y="154" width="460" height="19" rx="2"/>
<text class="v" x="880" y="169">1.000</text>
<text x="0" y="197">logistic_regression_tau_0_3</text>
<rect class="bar" x="409" y="182" width="460" height="19" rx="2"/>
<text class="v" x="880" y="197">1.000</text>
<text x="0" y="225">random_forest_tau_0_1</text>
<rect class="bar" x="409" y="210" width="460" height="19" rx="2"/>
<text class="v" x="880" y="225">1.000</text>
<text x="0" y="253">random_forest_tau_0_3</text>
<rect class="bar" x="409" y="238" width="460" height="19" rx="2"/>
<text class="v" x="880" y="253">0.999</text>
<text x="0" y="281">gradient_boosting_tau_0_2</text>
<rect class="bar" x="409" y="266" width="460" height="19" rx="2"/>
<text class="v" x="880" y="281">0.999</text>
<text x="0" y="309">random_forest_tau_0_2</text>
<rect class="bar" x="409" y="294" width="460" height="19" rx="2"/>
<text class="v" x="880" y="309">0.999</text>
<text x="0" y="337">gradient_boosting_tau_0_3</text>
<rect class="bar" x="409" y="322" width="460" height="19" rx="2"/>
<text class="v" x="880" y="337">0.999</text>
<text x="0" y="365">gradient_boosting_tau_0_1</text>
<rect class="bar" x="409" y="350" width="460" height="19" rx="2"/>
<text class="v" x="880" y="365">0.999</text>
<text x="0" y="393">decision_tree_tau_0_1</text>
<rect class="bar" x="409" y="378" width="460" height="19" rx="2"/>
<text class="v" x="880" y="393">0.999</text>
<text x="0" y="421">decision_tree_tau_0_2</text>
<rect class="bar" x="409" y="406" width="460" height="19" rx="2"/>
<text class="v" x="880" y="421">0.999</text>
<text x="0" y="449">decision_tree_tau_0_3</text>
<rect class="bar" x="409" y="434" width="460" height="19" rx="2"/>
<text class="v" x="880" y="449">0.999</text>
<text x="0" y="477">random_forest_tau_0_4</text>
<rect class="bar" x="409" y="462" width="460" height="19" rx="2"/>
<text class="v" x="880" y="477">0.999</text>
<text x="0" y="505">dst_pcr6_fire_specificity_silence_sensitivity_tau_0_1</text>
<rect class="bar" x="409" y="490" width="459" height="19" rx="2"/>
<text class="v" x="880" y="505">0.997</text>
<text x="0" y="533">dst_dempster_fire_specificity_silence_sensitivity_tau_0_1</text>
<rect class="bar" x="409" y="518" width="459" height="19" rx="2"/>
<text class="v" x="880" y="533">0.997</text>
<text x="0" y="561">dst_dempster_fire_specificity_silence_sensitivity_tau_0_2</text>
<rect class="bar" x="409" y="546" width="459" height="19" rx="2"/>
<text class="v" x="880" y="561">0.997</text>
<text x="0" y="589">dst_yager_fire_specificity_silence_sensitivity_tau_0_2</text>
<rect class="bar" x="409" y="574" width="459" height="19" rx="2"/>
<text class="v" x="880" y="589">0.997</text>
<text x="0" y="617">dst_yager_fire_specificity_silence_sensitivity_tau_0_1</text>
<rect class="bar" x="409" y="602" width="459" height="19" rx="2"/>
<text class="v" x="880" y="617">0.997</text>
<text x="0" y="645">dst_pcr6_fire_specificity_silence_sensitivity_tau_0_2</text>
<rect class="bar" x="409" y="630" width="459" height="19" rx="2"/>
<text class="v" x="880" y="645">0.997</text>
<text x="0" y="673">gradient_boosting_tau_0_4</text>
<rect class="bar" x="409" y="658" width="384" height="19" rx="2"/>
<text class="v" x="880" y="673">0.834</text>
<text x="0" y="701">dst_yager_fire_specificity_silence_sensitivity_tau_0_3</text>
<rect class="bar" x="409" y="686" width="358" height="19" rx="2"/>
<text class="v" x="880" y="701">0.777</text>
<text x="0" y="729">dst_pcr6_fire_specificity_silence_sensitivity_tau_0_3</text>
<rect class="bar" x="409" y="714" width="358" height="19" rx="2"/>
<text class="v" x="880" y="729">0.777</text>
<text x="0" y="757">dst_dempster_fire_specificity_silence_sensitivity_tau_0_3</text>
<rect class="bar" x="409" y="742" width="358" height="19" rx="2"/>
<text class="v" x="880" y="757">0.777</text>
<text x="0" y="785">logistic_regression_tau_0_4</text>
<rect class="bar" x="409" y="770" width="334" height="19" rx="2"/>
<text class="v" x="880" y="785">0.726</text>
<text x="0" y="813">logistic_interactions_tau_0_4</text>
<rect class="bar" x="409" y="798" width="334" height="19" rx="2"/>
<text class="v" x="880" y="813">0.726</text>
<text x="0" y="841">decision_tree_tau_0_4</text>
<rect class="bar" x="409" y="826" width="333" height="19" rx="2"/>
<text class="v" x="880" y="841">0.724</text>
<text x="0" y="869">dst_yager_fire_specificity_silence_sensitivity_tau_0_4</text>
<rect class="bar" x="409" y="854" width="299" height="19" rx="2"/>
<text class="v" x="880" y="869">0.650</text>
<text x="0" y="897">dst_dempster_fire_specificity_silence_sensitivity_tau_0_4</text>
<rect class="bar" x="409" y="882" width="299" height="19" rx="2"/>
<text class="v" x="880" y="897">0.650</text>
<text x="0" y="925">dst_pcr6_fire_specificity_silence_sensitivity_tau_0_4</text>
<rect class="bar" x="409" y="910" width="299" height="19" rx="2"/>
<text class="v" x="880" y="925">0.650</text>
<text x="0" y="953">gradient_boosting_tau_0_5</text>
<rect class="bar" x="409" y="938" width="135" height="19" rx="2"/>
<text class="v" x="880" y="953">0.295</text>
<text x="0" y="981">decision_tree_tau_0_5</text>
<rect class="bar" x="409" y="966" width="133" height="19" rx="2"/>
<text class="v" x="880" y="981">0.290</text>
<text x="0" y="1009">logistic_interactions_tau_0_5</text>
<rect class="bar" x="409" y="994" width="132" height="19" rx="2"/>
<text class="v" x="880" y="1009">0.288</text>
<text x="0" y="1037">logistic_regression_tau_0_5</text>
<rect class="bar" x="409" y="1022" width="132" height="19" rx="2"/>
<text class="v" x="880" y="1037">0.288</text>
<text x="0" y="1065">random_forest_tau_0_5</text>
<rect class="bar" x="409" y="1050" width="124" height="19" rx="2"/>
<text class="v" x="880" y="1065">0.271</text>
<text x="0" y="1093">dst_dempster_fire_specificity_silence_sensitivity_tau_0_5</text>
<rect class="bar" x="409" y="1078" width="123" height="19" rx="2"/>
<text class="v" x="880" y="1093">0.269</text>
<text x="0" y="1121">dst_pcr6_fire_specificity_silence_sensitivity_tau_0_5</text>
<rect class="bar" x="409" y="1106" width="123" height="19" rx="2"/>
<text class="v" x="880" y="1121">0.269</text>
<text x="0" y="1149">dst_yager_fire_specificity_silence_sensitivity_tau_0_5</text>
<rect class="bar" x="409" y="1134" width="123" height="19" rx="2"/>
<text class="v" x="880" y="1149">0.269</text>
<text x="0" y="1177">or_1_of_6</text>
<rect class="bar" x="409" y="1162" width="95" height="19" rx="2"/>
<text class="v" x="880" y="1177">0.207</text>
<text x="0" y="1205">weighted_fire_specificity_silence_sensitivity_tau_0_1</text>
<rect class="bar" x="409" y="1190" width="95" height="19" rx="2"/>
<text class="v" x="880" y="1205">0.207</text>
<text x="0" y="1233">weighted_fire_specificity_silence_sensitivity_tau_0_5</text>
<rect class="bar" x="409" y="1218" width="95" height="19" rx="2"/>
<text class="v" x="880" y="1233">0.207</text>
<text x="0" y="1261">weighted_fire_specificity_silence_sensitivity_tau_0_2</text>
<rect class="bar" x="409" y="1246" width="95" height="19" rx="2"/>
<text class="v" x="880" y="1261">0.207</text>
<text x="0" y="1289">weighted_fire_specificity_silence_sensitivity_tau_0_3</text>
<rect class="bar" x="409" y="1274" width="95" height="19" rx="2"/>
<text class="v" x="880" y="1289">0.207</text>
<text x="0" y="1317">weighted_fire_specificity_silence_sensitivity_tau_0_4</text>
<rect class="bar" x="409" y="1302" width="95" height="19" rx="2"/>
<text class="v" x="880" y="1317">0.207</text>
<text x="0" y="1345">dst_dempster_fire_specificity_silence_sensitivity_tau_0_9</text>
<rect class="bar" x="409" y="1330" width="95" height="19" rx="2"/>
<text class="v" x="880" y="1345">0.207</text>
<text x="0" y="1373">weighted_fire_specificity_silence_sensitivity_tau_0_6</text>
<rect class="bar" x="409" y="1358" width="95" height="19" rx="2"/>
<text class="v" x="880" y="1373">0.207</text>
<text x="0" y="1401">weighted_fire_specificity_silence_sensitivity_tau_0_7</text>
<rect class="bar" x="409" y="1386" width="95" height="19" rx="2"/>
<text class="v" x="880" y="1401">0.207</text>
<text x="0" y="1429">dst_dempster_fire_specificity_silence_sensitivity_tau_0_8</text>
<rect class="bar" x="409" y="1414" width="95" height="19" rx="2"/>
<text class="v" x="880" y="1429">0.207</text>
<text x="0" y="1457">dst_yager_fire_specificity_silence_sensitivity_tau_0_6</text>
<rect class="bar" x="409" y="1442" width="95" height="19" rx="2"/>
<text class="v" x="880" y="1457">0.207</text>
<text x="0" y="1485">dst_pcr6_fire_specificity_silence_sensitivity_tau_0_8</text>
<rect class="bar" x="409" y="1470" width="95" height="19" rx="2"/>
<text class="v" x="880" y="1485">0.207</text>
<text x="0" y="1513">dst_pcr6_fire_specificity_silence_sensitivity_tau_0_7</text>
<rect class="bar" x="409" y="1498" width="95" height="19" rx="2"/>
<text class="v" x="880" y="1513">0.207</text>
<text x="0" y="1541">dst_pcr6_fire_specificity_silence_sensitivity_tau_0_6</text>
<rect class="bar" x="409" y="1526" width="95" height="19" rx="2"/>
<text class="v" x="880" y="1541">0.207</text>
<text x="0" y="1569">dst_dempster_fire_specificity_silence_sensitivity_tau_0_6</text>
<rect class="bar" x="409" y="1554" width="95" height="19" rx="2"/>
<text class="v" x="880" y="1569">0.207</text>
<text x="0" y="1597">dst_dempster_fire_specificity_silence_sensitivity_tau_0_7</text>
<rect class="bar" x="409" y="1582" width="95" height="19" rx="2"/>
<text class="v" x="880" y="1597">0.207</text>
<text x="0" y="1625">dst_yager_fire_specificity_silence_sensitivity_tau_0_7</text>
<rect class="bar" x="409" y="1610" width="95" height="19" rx="2"/>
<text class="v" x="880" y="1625">0.207</text>
<text x="0" y="1653">dst_yager_fire_specificity_silence_sensitivity_tau_0_8</text>
<rect class="bar" x="409" y="1638" width="95" height="19" rx="2"/>
<text class="v" x="880" y="1653">0.207</text>
<text x="0" y="1681">logistic_interactions_tau_0_6</text>
<rect class="bar" x="409" y="1666" width="94" height="19" rx="2"/>
<text class="v" x="880" y="1681">0.206</text>
<text x="0" y="1709">random_forest_tau_0_6</text>
<rect class="bar" x="409" y="1694" width="94" height="19" rx="2"/>
<text class="v" x="880" y="1709">0.206</text>
<text x="0" y="1737">gradient_boosting_tau_0_6</text>
<rect class="bar" x="409" y="1722" width="94" height="19" rx="2"/>
<text class="v" x="880" y="1737">0.206</text>
<text x="0" y="1765">logistic_interactions_tau_0_7</text>
<rect class="bar" x="409" y="1750" width="94" height="19" rx="2"/>
<text class="v" x="880" y="1765">0.205</text>
<text x="0" y="1793">logistic_regression_tau_0_6</text>
<rect class="bar" x="409" y="1778" width="94" height="19" rx="2"/>
<text class="v" x="880" y="1793">0.205</text>
<text x="0" y="1821">logistic_interactions_tau_0_8</text>
<rect class="bar" x="409" y="1806" width="94" height="19" rx="2"/>
<text class="v" x="880" y="1821">0.205</text>
<text x="0" y="1849">decision_tree_tau_0_6</text>
<rect class="bar" x="409" y="1834" width="94" height="19" rx="2"/>
<text class="v" x="880" y="1849">0.205</text>
<text x="0" y="1877">gradient_boosting_tau_0_7</text>
<rect class="bar" x="409" y="1862" width="94" height="19" rx="2"/>
<text class="v" x="880" y="1877">0.204</text>
<text x="0" y="1905">logistic_regression_tau_0_7</text>
<rect class="bar" x="409" y="1890" width="94" height="19" rx="2"/>
<text class="v" x="880" y="1905">0.204</text>
<text x="0" y="1933">random_forest_tau_0_7</text>
<rect class="bar" x="409" y="1918" width="94" height="19" rx="2"/>
<text class="v" x="880" y="1933">0.204</text>
<text x="0" y="1961">logistic_regression_tau_0_8</text>
<rect class="bar" x="409" y="1946" width="94" height="19" rx="2"/>
<text class="v" x="880" y="1961">0.204</text>
<text x="0" y="1989">gradient_boosting_tau_0_8</text>
<rect class="bar" x="409" y="1974" width="94" height="19" rx="2"/>
<text class="v" x="880" y="1989">0.204</text>
<text x="0" y="2017">decision_tree_tau_0_7</text>
<rect class="bar" x="409" y="2002" width="94" height="19" rx="2"/>
<text class="v" x="880" y="2017">0.204</text>
<text x="0" y="2045">decision_tree_tau_0_8</text>
<rect class="bar" x="409" y="2030" width="93" height="19" rx="2"/>
<text class="v" x="880" y="2045">0.204</text>
<text x="0" y="2073">dst_pcr6_fire_specificity_silence_sensitivity_tau_0_9</text>
<rect class="bar" x="409" y="2058" width="93" height="19" rx="2"/>
<text class="v" x="880" y="2073">0.203</text>
<text x="0" y="2101">weighted_fire_specificity_silence_sensitivity_tau_0_8</text>
<rect class="bar" x="409" y="2086" width="93" height="19" rx="2"/>
<text class="v" x="880" y="2101">0.202</text>
<text x="0" y="2129">weighted_fire_specificity_silence_sensitivity_tau_0_9</text>
<rect class="bar" x="409" y="2114" width="93" height="19" rx="2"/>
<text class="v" x="880" y="2129">0.202</text>
<text x="0" y="2157">dst_yager_fire_specificity_silence_sensitivity_tau_0_9</text>
<rect class="bar" x="409" y="2142" width="93" height="19" rx="2"/>
<text class="v" x="880" y="2157">0.202</text>
<text x="0" y="2185">tool:flawfinder</text>
<rect class="bar" x="409" y="2170" width="91" height="19" rx="2"/>
<text class="v" x="880" y="2185">0.198</text>
<text x="0" y="2213">bks_tau_0_1</text>
<rect class="bar" x="409" y="2198" width="83" height="19" rx="2"/>
<text class="v" x="880" y="2213">0.182</text>
<text x="0" y="2241">naive_bayes_tau_0_1</text>
<rect class="bar" x="409" y="2226" width="83" height="19" rx="2"/>
<text class="v" x="880" y="2241">0.182</text>
<text x="0" y="2269">naive_bayes_tau_0_2</text>
<rect class="bar" x="409" y="2254" width="83" height="19" rx="2"/>
<text class="v" x="880" y="2269">0.180</text>
<text x="0" y="2297">bks_tau_0_2</text>
<rect class="bar" x="409" y="2282" width="82" height="19" rx="2"/>
<text class="v" x="880" y="2297">0.180</text>
<text x="0" y="2325">random_forest_tau_0_8</text>
<rect class="bar" x="409" y="2310" width="21" height="19" rx="2"/>
<text class="v" x="880" y="2325">0.048</text>
<text x="0" y="2353">logistic_regression_tau_0_9</text>
<rect class="bar" x="409" y="2338" width="19" height="19" rx="2"/>
<text class="v" x="880" y="2353">0.041</text>
<text x="0" y="2381">logistic_interactions_tau_0_9</text>
<rect class="bar" x="409" y="2366" width="17" height="19" rx="2"/>
<text class="v" x="880" y="2381">0.037</text>
<text x="0" y="2409">decision_tree_tau_0_9</text>
<rect class="bar" x="409" y="2394" width="15" height="19" rx="2"/>
<text class="v" x="880" y="2409">0.034</text>
<text x="0" y="2437">gradient_boosting_tau_0_9</text>
<rect class="bar" x="409" y="2422" width="14" height="19" rx="2"/>
<text class="v" x="880" y="2437">0.032</text>
<text x="0" y="2465">random_forest_tau_0_9</text>
<rect class="bar" x="409" y="2450" width="12" height="19" rx="2"/>
<text class="v" x="880" y="2465">0.026</text>
<text x="0" y="2493">naive_bayes_tau_0_3</text>
<rect class="bar" x="409" y="2478" width="10" height="19" rx="2"/>
<text class="v" x="880" y="2493">0.022</text>
<text x="0" y="2521">bks_tau_0_3</text>
<rect class="bar" x="409" y="2506" width="7" height="19" rx="2"/>
<text class="v" x="880" y="2521">0.017</text>
<text x="0" y="2549">traditional_2_of_6</text>
<rect class="bar" x="409" y="2534" width="6" height="19" rx="2"/>
<text class="v" x="880" y="2549">0.013</text>
<text x="0" y="2577">naive_bayes_tau_0_4</text>
<rect class="bar" x="409" y="2562" width="5" height="19" rx="2"/>
<text class="v" x="880" y="2577">0.013</text>
<text x="0" y="2605">naive_bayes_tau_0_5</text>
<rect class="bar" x="409" y="2590" width="5" height="19" rx="2"/>
<text class="v" x="880" y="2605">0.013</text>
<text x="0" y="2633">naive_bayes_tau_0_6</text>
<rect class="bar" x="409" y="2618" width="5" height="19" rx="2"/>
<text class="v" x="880" y="2633">0.012</text>
<text x="0" y="2661">tool:ikos</text>
<rect class="bar" x="409" y="2646" width="3" height="19" rx="2"/>
<text class="v" x="880" y="2661">0.008</text>
<text x="0" y="2689">naive_bayes_tau_0_7</text>
<rect class="bar" x="409" y="2674" width="2" height="19" rx="2"/>
<text class="v" x="880" y="2689">0.006</text>
<text x="0" y="2717">tool:codeql</text>
<rect class="bar" x="409" y="2702" width="2" height="19" rx="2"/>
<text class="v" x="880" y="2717">0.006</text>
<text x="0" y="2745">bks_tau_0_4</text>
<rect class="bar" x="409" y="2730" width="2" height="19" rx="2"/>
<text class="v" x="880" y="2745">0.005</text>
<text x="0" y="2773">tool:joern</text>
<rect class="bar" x="409" y="2758" width="2" height="19" rx="2"/>
<text class="v" x="880" y="2773">0.005</text>
<text x="0" y="2801">bks_tau_0_5</text>
<rect class="bar" x="409" y="2786" width="2" height="19" rx="2"/>
<text class="v" x="880" y="2801">0.005</text>
<text x="0" y="2829">tool:cppcheck</text>
<rect class="bar" x="409" y="2814" width="2" height="19" rx="2"/>
<text class="v" x="880" y="2829">0.004</text>
<text x="0" y="2857">bks_tau_0_6</text>
<rect class="bar" x="409" y="2842" width="2" height="19" rx="2"/>
<text class="v" x="880" y="2857">0.004</text>
<text x="0" y="2885">tool:semgrep</text>
<rect class="bar" x="409" y="2870" width="2" height="19" rx="2"/>
<text class="v" x="880" y="2885">0.003</text>
<text x="0" y="2913">naive_bayes_tau_0_8</text>
<rect class="bar" x="409" y="2898" width="2" height="19" rx="2"/>
<text class="v" x="880" y="2913">0.003</text>
<text x="0" y="2941">naive_bayes_tau_0_9</text>
<rect class="bar" x="409" y="2926" width="2" height="19" rx="2"/>
<text class="v" x="880" y="2941">0.003</text>
<text x="0" y="2969">bks_tau_0_7</text>
<rect class="bar" x="409" y="2954" width="2" height="19" rx="2"/>
<text class="v" x="880" y="2969">0.001</text>
<text x="0" y="2997">bks_tau_0_8</text>
<rect class="bar" x="409" y="2982" width="2" height="19" rx="2"/>
<text class="v" x="880" y="2997">0.000</text>
<text x="0" y="3025">bks_tau_0_9</text>
<rect class="bar" x="409" y="3010" width="2" height="19" rx="2"/>
<text class="v" x="880" y="3025">0.000</text>
</svg>