<svg xmlns="http://www.w3.org/2000/svg" width="960" height="4254" viewBox="0 0 960 4254">
<style>text{font-family:Arial,sans-serif;font-size:12px}.t{font-size:16px;font-weight:700}.ax{stroke:#888;stroke-width:1}.bar{fill:#3568a8}.v{fill:#222}</style>
<text class="t" x="0" y="20">fpr (support-weighted)</text>
<line class="ax" x1="409" y1="34" x2="409" y2="4244"/>
<text x="0" y="57">dst_dempster_fire_fpr_silence_fnr_tau_0_9</text>
<rect class="bar" x="409" y="42" width="2" height="19" rx="2"/>
<text class="v" x="880" y="57">0.000</text>
<text x="0" y="85">bks_tau_0_9</text>
<rect class="bar" x="409" y="70" width="2" height="19" rx="2"/>
<text class="v" x="880" y="85">0.000</text>
<text x="0" y="113">dst_yager_fire_fpr_silence_fnr_tau_0_7</text>
<rect class="bar" x="409" y="98" width="2" height="19" rx="2"/>
<text class="v" x="880" y="113">0.000</text>
<text x="0" y="141">dst_pcr6_fire_fpr_silence_fnr_tau_0_7</text>
<rect class="bar" x="409" y="126" width="2" height="19" rx="2"/>
<text class="v" x="880" y="141">0.000</text>
<text x="0" y="169">dst_pcr6_fire_fpr_silence_fnr_tau_0_8</text>
<rect class="bar" x="409" y="154" width="2" height="19" rx="2"/>
<text class="v" x="880" y="169">0.000</text>
<text x="0" y="197">dst_yager_fire_fpr_silence_fnr_tau_0_9</text>
<rect class="bar" x="409" y="182" width="2" height="19" rx="2"/>
<text class="v" x="880" y="197">0.000</text>
<text x="0" y="225">dst_yager_fire_fpr_silence_fnr_tau_0_8</text>
<rect class="bar" x="409" y="210" width="2" height="19" rx="2"/>
<text class="v" x="880" y="225">0.000</text>
<text x="0" y="253">dst_dempster_fire_fpr_silence_fnr_tau_0_7</text>
<rect class="bar" x="409" y="238" width="2" height="19" rx="2"/>
<text class="v" x="880" y="253">0.000</text>
<text x="0" y="281">dst_pcr6_fire_fpr_silence_fnr_tau_0_9</text>
<rect class="bar" x="409" y="266" width="2" height="19" rx="2"/>
<text class="v" x="880" y="281">0.000</text>
<text x="0" y="309">dst_dempster_fire_fpr_silence_fnr_tau_0_8</text>
<rect class="bar" x="409" y="294" width="2" height="19" rx="2"/>
<text class="v" x="880" y="309">0.000</text>
<text x="0" y="337">bks_tau_0_8</text>
<rect class="bar" x="409" y="322" width="2" height="19" rx="2"/>
<text class="v" x="880" y="337">0.000</text>
<text x="0" y="365">dst_pcr6_fire_fpr_silence_fnr_tau_0_6</text>
<rect class="bar" x="409" y="350" width="2" height="19" rx="2"/>
<text class="v" x="880" y="365">0.001</text>
<text x="0" y="393">dst_dempster_fire_fpr_silence_fnr_tau_0_6</text>
<rect class="bar" x="409" y="378" width="2" height="19" rx="2"/>
<text class="v" x="880" y="393">0.001</text>
<text x="0" y="421">dst_yager_fire_fpr_silence_fnr_tau_0_6</text>
<rect class="bar" x="409" y="406" width="2" height="19" rx="2"/>
<text class="v" x="880" y="421">0.001</text>
<text x="0" y="449">dst_yager_fire_ppv_silence_npv_tau_0_9</text>
<rect class="bar" x="409" y="434" width="2" height="19" rx="2"/>
<text class="v" x="880" y="449">0.001</text>
<text x="0" y="477">dst_pcr6_fire_ppv_silence_npv_tau_0_9</text>
<rect class="bar" x="409" y="462" width="2" height="19" rx="2"/>
<text class="v" x="880" y="477">0.001</text>
<text x="0" y="505">dst_dempster_fire_ppv_silence_npv_tau_0_9</text>
<rect class="bar" x="409" y="490" width="2" height="19" rx="2"/>
<text class="v" x="880" y="505">0.001</text>
<text x="0" y="533">dst_pcr6_fire_ppv_silence_npv_tau_0_8</text>
<rect class="bar" x="409" y="518" width="2" height="19" rx="2"/>
<text class="v" x="880" y="533">0.001</text>
<text x="0" y="561">dst_dempster_fire_ppv_silence_npv_tau_0_8</text>
<rect class="bar" x="409" y="546" width="2" height="19" rx="2"/>
<text class="v" x="880" y="561">0.001</text>
<text x="0" y="589">dst_yager_fire_ppv_silence_npv_tau_0_8</text>
<rect class="bar" x="409" y="574" width="2" height="19" rx="2"/>
<text class="v" x="880" y="589">0.001</text>
<text x="0" y="617">naive_bayes_tau_0_9</text>
<rect class="bar" x="409" y="602" width="2" height="19" rx="2"/>
<text class="v" x="880" y="617">0.001</text>
<text x="0" y="645">dst_dempster_fire_ppv_silence_npv_tau_0_7</text>
<rect class="bar" x="409" y="630" width="2" height="19" rx="2"/>
<text class="v" x="880" y="645">0.001</text>
<text x="0" y="673">dst_pcr6_fire_ppv_silence_npv_tau_0_7</text>
<rect class="bar" x="409" y="658" width="2" height="19" rx="2"/>
<text class="v" x="880" y="673">0.001</text>
<text x="0" y="701">dst_yager_fire_ppv_silence_npv_tau_0_7</text>
<rect class="bar" x="409" y="686" width="2" height="19" rx="2"/>
<text class="v" x="880" y="701">0.001</text>
<text x="0" y="729">dst_pcr6_fire_ppv_silence_npv_tau_0_6</text>
<rect class="bar" x="409" y="714" width="2" height="19" rx="2"/>
<text class="v" x="880" y="729">0.001</text>
<text x="0" y="757">dst_yager_fire_ppv_silence_npv_tau_0_6</text>
<rect class="bar" x="409" y="742" width="2" height="19" rx="2"/>
<text class="v" x="880" y="757">0.001</text>
<text x="0" y="785">dst_dempster_fire_ppv_silence_npv_tau_0_6</text>
<rect class="bar" x="409" y="770" width="2" height="19" rx="2"/>
<text class="v" x="880" y="785">0.001</text>
<text x="0" y="813">weighted_fire_ppv_silence_npv_tau_0_8</text>
<rect class="bar" x="409" y="798" width="2" height="19" rx="2"/>
<text class="v" x="880" y="813">0.002</text>
<text x="0" y="841">weighted_fire_ppv_silence_npv_tau_0_6</text>
<rect class="bar" x="409" y="826" width="2" height="19" rx="2"/>
<text class="v" x="880" y="841">0.002</text>
<text x="0" y="869">weighted_fire_ppv_silence_npv_tau_0_7</text>
<rect class="bar" x="409" y="854" width="2" height="19" rx="2"/>
<text class="v" x="880" y="869">0.002</text>
<text x="0" y="897">weighted_fire_ppv_silence_npv_tau_0_9</text>
<rect class="bar" x="409" y="882" width="2" height="19" rx="2"/>
<text class="v" x="880" y="897">0.002</text>
<text x="0" y="925">bks_tau_0_7</text>
<rect class="bar" x="409" y="910" width="2" height="19" rx="2"/>
<text class="v" x="880" y="925">0.002</text>
<text x="0" y="953">dst_pcr6_fire_fpr_silence_fnr_tau_0_5</text>
<rect class="bar" x="409" y="938" width="2" height="19" rx="2"/>
<text class="v" x="880" y="953">0.002</text>
<text x="0" y="981">dst_pcr6_fire_ppv_silence_npv_tau_0_5</text>
<rect class="bar" x="409" y="966" width="2" height="19" rx="2"/>
<text class="v" x="880" y="981">0.002</text>
<text x="0" y="1009">dst_dempster_fire_fpr_silence_fnr_tau_0_5</text>
<rect class="bar" x="409" y="994" width="2" height="19" rx="2"/>
<text class="v" x="880" y="1009">0.002</text>
<text x="0" y="1037">dst_yager_fire_ppv_silence_npv_tau_0_5</text>
<rect class="bar" x="409" y="1022" width="2" height="19" rx="2"/>
<text class="v" x="880" y="1037">0.002</text>
<text x="0" y="1065">dst_pcr6_fire_fpr_silence_fnr_tau_0_4</text>
<rect class="bar" x="409" y="1050" width="2" height="19" rx="2"/>
<text class="v" x="880" y="1065">0.002</text>
<text x="0" y="1093">dst_dempster_fire_fpr_silence_fnr_tau_0_4</text>
<rect class="bar" x="409" y="1078" width="2" height="19" rx="2"/>
<text class="v" x="880" y="1093">0.002</text>
<text x="0" y="1121">weighted_fire_fpr_silence_fnr_tau_0_6</text>
<rect class="bar" x="409" y="1106" width="2" height="19" rx="2"/>
<text class="v" x="880" y="1121">0.002</text>
<text x="0" y="1149">weighted_fire_fpr_silence_fnr_tau_0_3</text>
<rect class="bar" x="409" y="1134" width="2" height="19" rx="2"/>
<text class="v" x="880" y="1149">0.002</text>
<text x="0" y="1177">dst_yager_fire_fpr_silence_fnr_tau_0_5</text>
<rect class="bar" x="409" y="1162" width="2" height="19" rx="2"/>
<text class="v" x="880" y="1177">0.002</text>
<text x="0" y="1205">weighted_fire_fpr_silence_fnr_tau_0_9</text>
<rect class="bar" x="409" y="1190" width="2" height="19" rx="2"/>
<text class="v" x="880" y="1205">0.002</text>
<text x="0" y="1233">weighted_fire_fpr_silence_fnr_tau_0_8</text>
<rect class="bar" x="409" y="1218" width="2" height="19" rx="2"/>
<text class="v" x="880" y="1233">0.002</text>
<text x="0" y="1261">weighted_fire_fpr_silence_fnr_tau_0_7</text>
<rect class="bar" x="409" y="1246" width="2" height="19" rx="2"/>
<text class="v" x="880" y="1261">0.002</text>
<text x="0" y="1289">weighted_fire_fpr_silence_fnr_tau_0_5</text>
<rect class="bar" x="409" y="1274" width="2" height="19" rx="2"/>
<text class="v" x="880" y="1289">0.002</text>
<text x="0" y="1317">weighted_fire_fpr_silence_fnr_tau_0_4</text>
<rect class="bar" x="409" y="1302" width="2" height="19" rx="2"/>
<text class="v" x="880" y="1317">0.002</text>
<text x="0" y="1345">dst_yager_fire_fpr_silence_fnr_tau_0_4</text>
<rect class="bar" x="409" y="1330" width="2" height="19" rx="2"/>
<text class="v" x="880" y="1345">0.002</text>
<text x="0" y="1373">dst_dempster_fire_ppv_silence_npv_tau_0_5</text>
<rect class="bar" x="409" y="1358" width="2" height="19" rx="2"/>
<text class="v" x="880" y="1373">0.002</text>
<text x="0" y="1401">dst_pcr6_fire_fpr_silence_fnr_tau_0_3</text>
<rect class="bar" x="409" y="1386" width="2" height="19" rx="2"/>
<text class="v" x="880" y="1401">0.002</text>
<text x="0" y="1429">dst_dempster_fire_fpr_silence_fnr_tau_0_3</text>
<rect class="bar" x="409" y="1414" width="2" height="19" rx="2"/>
<text class="v" x="880" y="1429">0.002</text>
<text x="0" y="1457">dst_yager_fire_fpr_silence_fnr_tau_0_3</text>
<rect class="bar" x="409" y="1442" width="2" height="19" rx="2"/>
<text class="v" x="880" y="1457">0.002</text>
<text x="0" y="1485">dst_pcr6_fire_fpr_silence_fnr_tau_0_2</text>
<rect class="bar" x="409" y="1470" width="2" height="19" rx="2"/>
<text class="v" x="880" y="1485">0.002</text>
<text x="0" y="1513">dst_dempster_fire_fpr_silence_fnr_tau_0_2</text>
<rect class="bar" x="409" y="1498" width="2" height="19" rx="2"/>
<text class="v" x="880" y="1513">0.002</text>
<text x="0" y="1541">dst_yager_fire_fpr_silence_fnr_tau_0_2</text>
<rect class="bar" x="409" y="1526" width="2" height="19" rx="2"/>
<text class="v" x="880" y="1541">0.002</text>
<text x="0" y="1569">logistic_regression_tau_0_9</text>
<rect class="bar" x="409" y="1554" width="2" height="19" rx="2"/>
<text class="v" x="880" y="1569">0.002</text>
<text x="0" y="1597">bks_tau_0_6</text>
<rect class="bar" x="409" y="1582" width="2" height="19" rx="2"/>
<text class="v" x="880" y="1597">0.003</text>
<text x="0" y="1625">dst_dempster_fire_ppv_silence_npv_tau_0_4</text>
<rect class="bar" x="409" y="1610" width="2" height="19" rx="2"/>
<text class="v" x="880" y="1625">0.003</text>
<text x="0" y="1653">dst_pcr6_fire_ppv_silence_npv_tau_0_4</text>
<rect class="bar" x="409" y="1638" width="2" height="19" rx="2"/>
<text class="v" x="880" y="1653">0.003</text>
<text x="0" y="1681">bks_tau_0_5</text>
<rect class="bar" x="409" y="1666" width="2" height="19" rx="2"/>
<text class="v" x="880" y="1681">0.004</text>
<text x="0" y="1709">weighted_fire_fpr_silence_fnr_tau_0_2</text>
<rect class="bar" x="409" y="1694" width="2" height="19" rx="2"/>
<text class="v" x="880" y="1709">0.004</text>
<text x="0" y="1737">logistic_interactions_tau_0_9</text>
<rect class="bar" x="409" y="1722" width="2" height="19" rx="2"/>
<text class="v" x="880" y="1737">0.004</text>
<text x="0" y="1765">weighted_fire_ppv_silence_npv_tau_0_5</text>
<rect class="bar" x="409" y="1750" width="4" height="19" rx="2"/>
<text class="v" x="880" y="1765">0.009</text>
<text x="0" y="1793">naive_bayes_tau_0_8</text>
<rect class="bar" x="409" y="1778" width="4" height="19" rx="2"/>
<text class="v" x="880" y="1793">0.009</text>
<text x="0" y="1821">dst_dempster_fire_ppv_silence_npv_tau_0_3</text>
<rect class="bar" x="409" y="1806" width="4" height="19" rx="2"/>
<text class="v" x="880" y="1821">0.009</text>
<text x="0" y="1849">dst_yager_fire_ppv_silence_npv_tau_0_4</text>
<rect class="bar" x="409" y="1834" width="4" height="19" rx="2"/>
<text class="v" x="880" y="1849">0.009</text>
<text x="0" y="1877">dst_dempster_fire_ppv_silence_npv_tau_0_2</text>
<rect class="bar" x="409" y="1862" width="4" height="19" rx="2"/>
<text class="v" x="880" y="1877">0.010</text>
<text x="0" y="1905">dst_pcr6_fire_ppv_silence_npv_tau_0_3</text>
<rect class="bar" x="409" y="1890" width="4" height="19" rx="2"/>
<text class="v" x="880" y="1905">0.010</text>
<text x="0" y="1933">weighted_fire_ppv_silence_npv_tau_0_4</text>
<rect class="bar" x="409" y="1918" width="4" height="19" rx="2"/>
<text class="v" x="880" y="1933">0.010</text>
<text x="0" y="1961">dst_dempster_fire_ppv_silence_npv_tau_0_1</text>
<rect class="bar" x="409" y="1946" width="4" height="19" rx="2"/>
<text class="v" x="880" y="1961">0.010</text>
<text x="0" y="1989">dst_dempster_fire_fpr_silence_fnr_tau_0_1</text>
<rect class="bar" x="409" y="1974" width="4" height="19" rx="2"/>
<text class="v" x="880" y="1989">0.011</text>
<text x="0" y="2017">dst_pcr6_fire_fpr_silence_fnr_tau_0_1</text>
<rect class="bar" x="409" y="2002" width="4" height="19" rx="2"/>
<text class="v" x="880" y="2017">0.011</text>
<text x="0" y="2045">dst_pcr6_fire_ppv_silence_npv_tau_0_2</text>
<rect class="bar" x="409" y="2030" width="5" height="19" rx="2"/>
<text class="v" x="880" y="2045">0.011</text>
<text x="0" y="2073">bks_tau_0_4</text>
<rect class="bar" x="409" y="2058" width="5" height="19" rx="2"/>
<text class="v" x="880" y="2073">0.011</text>
<text x="0" y="2101">naive_bayes_tau_0_7</text>
<rect class="bar" x="409" y="2086" width="5" height="19" rx="2"/>
<text class="v" x="880" y="2101">0.012</text>
<text x="0" y="2129">naive_bayes_tau_0_6</text>
<rect class="bar" x="409" y="2114" width="5" height="19" rx="2"/>
<text class="v" x="880" y="2129">0.013</text>
<text x="0" y="2157">weighted_fire_ppv_silence_npv_tau_0_3</text>
<rect class="bar" x="409" y="2142" width="5" height="19" rx="2"/>
<text class="v" x="880" y="2157">0.013</text>
<text x="0" y="2185">dst_yager_fire_ppv_silence_npv_tau_0_3</text>
<rect class="bar" x="409" y="2170" width="6" height="19" rx="2"/>
<text class="v" x="880" y="2185">0.014</text>
<text x="0" y="2213">naive_bayes_tau_0_5</text>
<rect class="bar" x="409" y="2198" width="6" height="19" rx="2"/>
<text class="v" x="880" y="2213">0.015</text>
<text x="0" y="2241">logistic_regression_tau_0_8</text>
<rect class="bar" x="409" y="2226" width="7" height="19" rx="2"/>
<text class="v" x="880" y="2241">0.015</text>
<text x="0" y="2269">bks_tau_0_3</text>
<rect class="bar" x="409" y="2254" width="7" height="19" rx="2"/>
<text class="v" x="880" y="2269">0.015</text>
<text x="0" y="2297">tool:pylint</text>
<rect class="bar" x="409" y="2282" width="7" height="19" rx="2"/>
<text class="v" x="880" y="2297">0.016</text>
<text x="0" y="2325">logistic_interactions_tau_0_8</text>
<rect class="bar" x="409" y="2310" width="7" height="19" rx="2"/>
<text class="v" x="880" y="2325">0.016</text>
<text x="0" y="2353">weighted_fire_fpr_silence_fnr_tau_0_1</text>
<rect class="bar" x="409" y="2338" width="7" height="19" rx="2"/>
<text class="v" x="880" y="2353">0.017</text>
<text x="0" y="2381">traditional_2_of_4</text>
<rect class="bar" x="409" y="2366" width="8" height="19" rx="2"/>
<text class="v" x="880" y="2381">0.018</text>
<text x="0" y="2409">dst_pcr6_fire_ppv_silence_npv_tau_0_1</text>
<rect class="bar" x="409" y="2394" width="8" height="19" rx="2"/>
<text class="v" x="880" y="2409">0.018</text>
<text x="0" y="2437">tool:semgrep</text>
<rect class="bar" x="409" y="2422" width="8" height="19" rx="2"/>
<text class="v" x="880" y="2437">0.018</text>
<text x="0" y="2465">weighted_fire_ppv_silence_npv_tau_0_2</text>
<rect class="bar" x="409" y="2450" width="8" height="19" rx="2"/>
<text class="v" x="880" y="2465">0.018</text>
<text x="0" y="2493">naive_bayes_tau_0_4</text>
<rect class="bar" x="409" y="2478" width="8" height="19" rx="2"/>
<text class="v" x="880" y="2493">0.019</text>
<text x="0" y="2521">logistic_interactions_tau_0_7</text>
<rect class="bar" x="409" y="2506" width="9" height="19" rx="2"/>
<text class="v" x="880" y="2521">0.021</text>
<text x="0" y="2549">naive_bayes_tau_0_3</text>
<rect class="bar" x="409" y="2534" width="11" height="19" rx="2"/>
<text class="v" x="880" y="2549">0.025</text>
<text x="0" y="2577">dst_yager_fire_ppv_silence_npv_tau_0_2</text>
<rect class="bar" x="409" y="2562" width="11" height="19" rx="2"/>
<text class="v" x="880" y="2577">0.025</text>
<text x="0" y="2605">dst_yager_fire_specificity_silence_sensitivity_tau_0_9</text>
<rect class="bar" x="409" y="2590" width="11" height="19" rx="2"/>
<text class="v" x="880" y="2605">0.025</text>
<text x="0" y="2633">dst_yager_fire_fpr_silence_fnr_tau_0_1</text>
<rect class="bar" x="409" y="2618" width="11" height="19" rx="2"/>
<text class="v" x="880" y="2633">0.026</text>
<text x="0" y="2661">logistic_regression_tau_0_7</text>
<rect class="bar" x="409" y="2646" width="12" height="19" rx="2"/>
<text class="v" x="880" y="2661">0.026</text>
<text x="0" y="2689">weighted_fire_specificity_silence_sensitivity_tau_0_9</text>
<rect class="bar" x="409" y="2674" width="14" height="19" rx="2"/>
<text class="v" x="880" y="2689">0.031</text>
<text x="0" y="2717">tool:bandit</text>
<rect class="bar" x="409" y="2702" width="14" height="19" rx="2"/>
<text class="v" x="880" y="2717">0.032</text>
<text x="0" y="2745">tool:codeql</text>
<rect class="bar" x="409" y="2730" width="17" height="19" rx="2"/>
<text class="v" x="880" y="2745">0.038</text>
<text x="0" y="2773">weighted_fire_specificity_silence_sensitivity_tau_0_8</text>
<rect class="bar" x="409" y="2758" width="19" height="19" rx="2"/>
<text class="v" x="880" y="2773">0.042</text>
<text x="0" y="2801">bks_tau_0_2</text>
<rect class="bar" x="409" y="2786" width="19" height="19" rx="2"/>
<text class="v" x="880" y="2801">0.043</text>
<text x="0" y="2829">weighted_fire_ppv_silence_npv_tau_0_1</text>
<rect class="bar" x="409" y="2814" width="21" height="19" rx="2"/>
<text class="v" x="880" y="2829">0.048</text>
<text x="0" y="2857">naive_bayes_tau_0_2</text>
<rect class="bar" x="409" y="2842" width="22" height="19" rx="2"/>
<text class="v" x="880" y="2857">0.048</text>
<text x="0" y="2885">logistic_regression_tau_0_6</text>
<rect class="bar" x="409" y="2870" width="22" height="19" rx="2"/>
<text class="v" x="880" y="2885">0.049</text>
<text x="0" y="2913">logistic_interactions_tau_0_6</text>
<rect class="bar" x="409" y="2898" width="22" height="19" rx="2"/>
<text class="v" x="880" y="2913">0.049</text>
<text x="0" y="2941">dst_yager_fire_specificity_silence_sensitivity_tau_0_8</text>
<rect class="bar" x="409" y="2926" width="27" height="19" rx="2"/>
<text class="v" x="880" y="2941">0.059</text>
<text x="0" y="2969">dst_pcr6_fire_specificity_silence_sensitivity_tau_0_9</text>
<rect class="bar" x="409" y="2954" width="27" height="19" rx="2"/>
<text class="v" x="880" y="2969">0.060</text>
<text x="0" y="2997">weighted_fire_specificity_silence_sensitivity_tau_0_7</text>
<rect class="bar" x="409" y="2982" width="27" height="19" rx="2"/>
<text class="v" x="880" y="2997">0.060</text>
<text x="0" y="3025">dst_yager_fire_ppv_silence_npv_tau_0_1</text>
<rect class="bar" x="409" y="3010" width="29" height="19" rx="2"/>
<text class="v" x="880" y="3025">0.065</text>
<text x="0" y="3053">dst_dempster_fire_specificity_silence_sensitivity_tau_0_9</text>
<rect class="bar" x="409" y="3038" width="30" height="19" rx="2"/>
<text class="v" x="880" y="3053">0.066</text>
<text x="0" y="3081">dst_yager_fire_specificity_silence_sensitivity_tau_0_7</text>
<rect class="bar" x="409" y="3066" width="33" height="19" rx="2"/>
<text class="v" x="880" y="3081">0.073</text>
<text x="0" y="3109">weighted_fire_specificity_silence_sensitivity_tau_0_6</text>
<rect class="bar" x="409" y="3094" width="33" height="19" rx="2"/>
<text class="v" x="880" y="3109">0.073</text>
<text x="0" y="3137">dst_pcr6_fire_specificity_silence_sensitivity_tau_0_8</text>
<rect class="bar" x="409" y="3122" width="33" height="19" rx="2"/>
<text class="v" x="880" y="3137">0.073</text>
<text x="0" y="3165">dst_pcr6_fire_specificity_silence_sensitivity_tau_0_7</text>
<rect class="bar" x="409" y="3150" width="35" height="19" rx="2"/>
<text class="v" x="880" y="3165">0.077</text>
<text x="0" y="3193">dst_pcr6_fire_specificity_silence_sensitivity_tau_0_6</text>
<rect class="bar" x="409" y="3178" width="35" height="19" rx="2"/>
<text class="v" x="880" y="3193">0.077</text>
<text x="0" y="3221">dst_yager_fire_specificity_silence_sensitivity_tau_0_6</text>
<rect class="bar" x="409" y="3206" width="35" height="19" rx="2"/>
<text class="v" x="880" y="3221">0.077</text>
<text x="0" y="3249">weighted_fire_specificity_silence_sensitivity_tau_0_5</text>
<rect class="bar" x="409" y="3234" width="35" height="19" rx="2"/>
<text class="v" x="880" y="3249">0.077</text>
<text x="0" y="3277">dst_dempster_fire_specificity_silence_sensitivity_tau_0_8</text>
<rect class="bar" x="409" y="3262" width="35" height="19" rx="2"/>
<text class="v" x="880" y="3277">0.077</text>
<text x="0" y="3305">weighted_fire_specificity_silence_sensitivity_tau_0_1</text>
<rect class="bar" x="409" y="3290" width="35" height="19" rx="2"/>
<text class="v" x="880" y="3305">0.077</text>
<text x="0" y="3333">weighted_fire_specificity_silence_sensitivity_tau_0_2</text>
<rect class="bar" x="409" y="3318" width="35" height="19" rx="2"/>
<text class="v" x="880" y="3333">0.077</text>
<text x="0" y="3361">weighted_fire_specificity_silence_sensitivity_tau_0_3</text>
<rect class="bar" x="409" y="3346" width="35" height="19" rx="2"/>
<text class="v" x="880" y="3361">0.077</text>
<text x="0" y="3389">dst_dempster_fire_specificity_silence_sensitivity_tau_0_6</text>
<rect class="bar" x="409" y="3374" width="35" height="19" rx="2"/>
<text class="v" x="880" y="3389">0.077</text>
<text x="0" y="3417">dst_dempster_fire_specificity_silence_sensitivity_tau_0_7</text>
<rect class="bar" x="409" y="3402" width="35" height="19" rx="2"/>
<text class="v" x="880" y="3417">0.077</text>
<text x="0" y="3445">weighted_fire_specificity_silence_sensitivity_tau_0_4</text>
<rect class="bar" x="409" y="3430" width="35" height="19" rx="2"/>
<text class="v" x="880" y="3445">0.077</text>
<text x="0" y="3473">or_1_of_4</text>
<rect class="bar" x="409" y="3458" width="35" height="19" rx="2"/>
<text class="v" x="880" y="3473">0.077</text>
<text x="0" y="3501">logistic_interactions_tau_0_5</text>
<rect class="bar" x="409" y="3486" width="47" height="19" rx="2"/>
<text class="v" x="880" y="3501">0.103</text>
<text x="0" y="3529">logistic_regression_tau_0_5</text>
<rect class="bar" x="409" y="3514" width="48" height="19" rx="2"/>
<text class="v" x="880" y="3529">0.106</text>
<text x="0" y="3557">dst_pcr6_fire_specificity_silence_sensitivity_tau_0_5</text>
<rect class="bar" x="409" y="3542" width="51" height="19" rx="2"/>
<text class="v" x="880" y="3557">0.111</text>
<text x="0" y="3585">dst_yager_fire_specificity_silence_sensitivity_tau_0_5</text>
<rect class="bar" x="409" y="3570" width="51" height="19" rx="2"/>
<text class="v" x="880" y="3585">0.111</text>
<text x="0" y="3613">dst_dempster_fire_specificity_silence_sensitivity_tau_0_5</text>
<rect class="bar" x="409" y="3598" width="51" height="19" rx="2"/>
<text class="v" x="880" y="3613">0.111</text>
<text x="0" y="3641">naive_bayes_tau_0_1</text>
<rect class="bar" x="409" y="3626" width="97" height="19" rx="2"/>
<text class="v" x="880" y="3641">0.212</text>
<text x="0" y="3669">bks_tau_0_1</text>
<rect class="bar" x="409" y="3654" width="170" height="19" rx="2"/>
<text class="v" x="880" y="3669">0.369</text>
<text x="0" y="3697">dst_dempster_fire_specificity_silence_sensitivity_tau_0_4</text>
<rect class="bar" x="409" y="3682" width="204" height="19" rx="2"/>
<text class="v" x="880" y="3697">0.443</text>
<text x="0" y="3725">dst_pcr6_fire_specificity_silence_sensitivity_tau_0_4</text>
<rect class="bar" x="409" y="3710" width="204" height="19" rx="2"/>
<text class="v" x="880" y="3725">0.443</text>
<text x="0" y="3753">dst_yager_fire_specificity_silence_sensitivity_tau_0_4</text>
<rect class="bar" x="409" y="3738" width="204" height="19" rx="2"/>
<text class="v" x="880" y="3753">0.443</text>
<text x="0" y="3781">dst_dempster_fire_specificity_silence_sensitivity_tau_0_3</text>
<rect class="bar" x="409" y="3766" width="356" height="19" rx="2"/>
<text class="v" x="880" y="3781">0.773</text>
<text x="0" y="3809">dst_pcr6_fire_specificity_silence_sensitivity_tau_0_3</text>
<rect class="bar" x="409" y="3794" width="356" height="19" rx="2"/>
<text class="v" x="880" y="3809">0.773</text>
<text x="0" y="3837">dst_yager_fire_specificity_silence_sensitivity_tau_0_3</text>
<rect class="bar" x="409" y="3822" width="356" height="19" rx="2"/>
<text class="v" x="880" y="3837">0.773</text>
<text x="0" y="3865">logistic_regression_tau_0_4</text>
<rect class="bar" x="409" y="3850" width="359" height="19" rx="2"/>
<text class="v" x="880" y="3865">0.780</text>
<text x="0" y="3893">logistic_interactions_tau_0_4</text>
<rect class="bar" x="409" y="3878" width="360" height="19" rx="2"/>
<text class="v" x="880" y="3893">0.782</text>
<text x="0" y="3921">dst_pcr6_fire_specificity_silence_sensitivity_tau_0_2</text>
<rect class="bar" x="409" y="3906" width="366" height="19" rx="2"/>
<text class="v" x="880" y="3921">0.795</text>
<text x="0" y="3949">dst_yager_fire_specificity_silence_sensitivity_tau_0_2</text>
<rect class="bar" x="409" y="3934" width="366" height="19" rx="2"/>
<text class="v" x="880" y="3949">0.795</text>
<text x="0" y="3977">dst_dempster_fire_specificity_silence_sensitivity_tau_0_2</text>
<rect class="bar" x="409" y="3962" width="366" height="19" rx="2"/>
<text class="v" x="880" y="3977">0.795</text>
<text x="0" y="4005">logistic_interactions_tau_0_3</text>
<rect class="bar" x="409" y="3990" width="444" height="19" rx="2"/>
<text class="v" x="880" y="4005">0.964</text>
<text x="0" y="4033">logistic_regression_tau_0_3</text>
<rect class="bar" x="409" y="4018" width="444" height="19" rx="2"/>
<text class="v" x="880" y="4033">0.964</text>
<text x="0" y="4061">dst_yager_fire_specificity_silence_sensitivity_tau_0_1</text>
<rect class="bar" x="409" y="4046" width="448" height="19" rx="2"/>
<text class="v" x="880" y="4061">0.974</text>
<text x="0" y="4089">dst_pcr6_fire_specificity_silence_sensitivity_tau_0_1</text>
<rect class="bar" x="409" y="4074" width="448" height="19" rx="2"/>
<text class="v" x="880" y="4089">0.974</text>
<text x="0" y="4117">dst_dempster_fire_specificity_silence_sensitivity_tau_0_1</text>
<rect class="bar" x="409" y="4102" width="448" height="19" rx="2"/>
<text class="v" x="880" y="4117">0.974</text>
<text x="0" y="4145">logistic_interactions_tau_0_2</text>
<rect class="bar" x="409" y="4130" width="460" height="19" rx="2"/>
<text class="v" x="880" y="4145">0.999</text>
<text x="0" y="4173">logistic_regression_tau_0_2</text>
<rect class="bar" x="409" y="4158" width="460" height="19" rx="2"/>
<text class="v" x="880" y="4173">0.999</text>
<text x="0" y="4201">logistic_interactions_tau_0_1</text>
<rect class="bar" x="409" y="4186" width="460" height="19" rx="2"/>
<text class="v" x="880" y="4201">1.000</text>
<text x="0" y="4229">logistic_regression_tau_0_1</text>
<rect class="bar" x="409" y="4214" width="460" height="19" rx="2"/>
<text class="v" x="880" y="4229">1.000</text>
</svg>