<svg xmlns="http://www.w3.org/2000/svg" width="960" height="2994" viewBox="0 0 960 2994">
<style>text{font-family:Arial,sans-serif;font-size:12px}.t{font-size:16px;font-weight:700}.ax{stroke:#888;stroke-width:1}.bar{fill:#3568a8}.v{fill:#222}</style>
<text class="t" x="0" y="20">recall (support-weighted)</text>
<line class="ax" x1="409" y1="34" x2="409" y2="2984"/>
<text x="0" y="57">logistic_regression_tau_0_2</text>
<rect class="bar" x="409" y="42" width="461" height="19" rx="2"/>
<text class="v" x="880" y="57">1.000</text>
<text x="0" y="85">logistic_regression_tau_0_1</text>
<rect class="bar" x="409" y="70" width="461" height="19" rx="2"/>
<text class="v" x="880" y="85">1.000</text>
<text x="0" y="113">logistic_interactions_tau_0_1</text>
<rect class="bar" x="409" y="98" width="461" height="19" rx="2"/>
<text class="v" x="880" y="113">1.000</text>
<text x="0" y="141">logistic_interactions_tau_0_2</text>
<rect class="bar" x="409" y="126" width="461" height="19" rx="2"/>
<text class="v" x="880" y="141">1.000</text>
<text x="0" y="169">gradient_boosting_tau_0_1</text>
<rect class="bar" x="409" y="154" width="461" height="19" rx="2"/>
<text class="v" x="880" y="169">1.000</text>
<text x="0" y="197">decision_tree_tau_0_2</text>
<rect class="bar" x="409" y="182" width="460" height="19" rx="2"/>
<text class="v" x="880" y="197">1.000</text>
<text x="0" y="225">random_forest_tau_0_1</text>
<rect class="bar" x="409" y="210" width="460" height="19" rx="2"/>
<text class="v" x="880" y="225">1.000</text>
<text x="0" y="253">random_forest_tau_0_2</text>
<rect class="bar" x="409" y="238" width="460" height="19" rx="2"/>
<text class="v" x="880" y="253">1.000</text>
<text x="0" y="281">gradient_boosting_tau_0_2</text>
<rect class="bar" x="409" y="266" width="460" height="19" rx="2"/>
<text class="v" x="880" y="281">1.000</text>
<text x="0" y="309">decision_tree_tau_0_1</text>
<rect class="bar" x="409" y="294" width="460" height="19" rx="2"/>
<text class="v" x="880" y="309">1.000</text>
<text x="0" y="337">logistic_regression_tau_0_3</text>
<rect class="bar" x="409" y="322" width="455" height="19" rx="2"/>
<text class="v" x="880" y="337">0.989</text>
<text x="0" y="365">logistic_interactions_tau_0_3</text>
<rect class="bar" x="409" y="350" width="455" height="19" rx="2"/>
<text class="v" x="880" y="365">0.989</text>
<text x="0" y="393">decision_tree_tau_0_3</text>
<rect class="bar" x="409" y="378" width="455" height="19" rx="2"/>
<text class="v" x="880" y="393">0.988</text>
<text x="0" y="421">gradient_boosting_tau_0_3</text>
<rect class="bar" x="409" y="406" width="455" height="19" rx="2"/>
<text class="v" x="880" y="421">0.988</text>
<text x="0" y="449">random_forest_tau_0_3</text>
<rect class="bar" x="409" y="434" width="455" height="19" rx="2"/>
<text class="v" x="880" y="449">0.988</text>
<text x="0" y="477">dst_pcr6_fire_specificity_silence_sensitivity_tau_0_1</text>
<rect class="bar" x="409" y="462" width="454" height="19" rx="2"/>
<text class="v" x="880" y="477">0.987</text>
<text x="0" y="505">dst_yager_fire_specificity_silence_sensitivity_tau_0_1</text>
<rect class="bar" x="409" y="490" width="454" height="19" rx="2"/>
<text class="v" x="880" y="505">0.987</text>
<text x="0" y="533">dst_dempster_fire_specificity_silence_sensitivity_tau_0_1</text>
<rect class="bar" x="409" y="518" width="454" height="19" rx="2"/>
<text class="v" x="880" y="533">0.987</text>
<text x="0" y="561">dst_dempster_fire_specificity_silence_sensitivity_tau_0_2</text>
<rect class="bar" x="409" y="546" width="403" height="19" rx="2"/>
<text class="v" x="880" y="561">0.874</text>
<text x="0" y="589">dst_pcr6_fire_specificity_silence_sensitivity_tau_0_2</text>
<rect class="bar" x="409" y="574" width="403" height="19" rx="2"/>
<text class="v" x="880" y="589">0.874</text>
<text x="0" y="617">dst_yager_fire_specificity_silence_sensitivity_tau_0_2</text>
<rect class="bar" x="409" y="602" width="403" height="19" rx="2"/>
<text class="v" x="880" y="617">0.874</text>
<text x="0" y="645">decision_tree_tau_0_4</text>
<rect class="bar" x="409" y="630" width="401" height="19" rx="2"/>
<text class="v" x="880" y="645">0.872</text>
<text x="0" y="673">random_forest_tau_0_4</text>
<rect class="bar" x="409" y="658" width="401" height="19" rx="2"/>
<text class="v" x="880" y="673">0.872</text>
<text x="0" y="701">logistic_interactions_tau_0_4</text>
<rect class="bar" x="409" y="686" width="398" height="19" rx="2"/>
<text class="v" x="880" y="701">0.865</text>
<text x="0" y="729">gradient_boosting_tau_0_4</text>
<rect class="bar" x="409" y="714" width="398" height="19" rx="2"/>
<text class="v" x="880" y="729">0.865</text>
<text x="0" y="757">logistic_regression_tau_0_4</text>
<rect class="bar" x="409" y="742" width="397" height="19" rx="2"/>
<text class="v" x="880" y="757">0.862</text>
<text x="0" y="785">dst_dempster_fire_specificity_silence_sensitivity_tau_0_3</text>
<rect class="bar" x="409" y="770" width="395" height="19" rx="2"/>
<text class="v" x="880" y="785">0.859</text>
<text x="0" y="813">dst_pcr6_fire_specificity_silence_sensitivity_tau_0_3</text>
<rect class="bar" x="409" y="798" width="395" height="19" rx="2"/>
<text class="v" x="880" y="813">0.859</text>
<text x="0" y="841">dst_yager_fire_specificity_silence_sensitivity_tau_0_3</text>
<rect class="bar" x="409" y="826" width="395" height="19" rx="2"/>
<text class="v" x="880" y="841">0.859</text>
<text x="0" y="869">dst_pcr6_fire_specificity_silence_sensitivity_tau_0_4</text>
<rect class="bar" x="409" y="854" width="283" height="19" rx="2"/>
<text class="v" x="880" y="869">0.614</text>
<text x="0" y="897">dst_dempster_fire_specificity_silence_sensitivity_tau_0_4</text>
<rect class="bar" x="409" y="882" width="283" height="19" rx="2"/>
<text class="v" x="880" y="897">0.614</text>
<text x="0" y="925">dst_yager_fire_specificity_silence_sensitivity_tau_0_4</text>
<rect class="bar" x="409" y="910" width="283" height="19" rx="2"/>
<text class="v" x="880" y="925">0.614</text>
<text x="0" y="953">bks_tau_0_1</text>
<rect class="bar" x="409" y="938" width="216" height="19" rx="2"/>
<text class="v" x="880" y="953">0.470</text>
<text x="0" y="981">naive_bayes_tau_0_1</text>
<rect class="bar" x="409" y="966" width="169" height="19" rx="2"/>
<text class="v" x="880" y="981">0.368</text>
<text x="0" y="1009">decision_tree_tau_0_5</text>
<rect class="bar" x="409" y="994" width="143" height="19" rx="2"/>
<text class="v" x="880" y="1009">0.311</text>
<text x="0" y="1037">random_forest_tau_0_5</text>
<rect class="bar" x="409" y="1022" width="141" height="19" rx="2"/>
<text class="v" x="880" y="1037">0.307</text>
<text x="0" y="1065">dst_yager_fire_specificity_silence_sensitivity_tau_0_5</text>
<rect class="bar" x="409" y="1050" width="131" height="19" rx="2"/>
<text class="v" x="880" y="1065">0.286</text>
<text x="0" y="1093">dst_dempster_fire_specificity_silence_sensitivity_tau_0_5</text>
<rect class="bar" x="409" y="1078" width="131" height="19" rx="2"/>
<text class="v" x="880" y="1093">0.286</text>
<text x="0" y="1121">dst_pcr6_fire_specificity_silence_sensitivity_tau_0_5</text>
<rect class="bar" x="409" y="1106" width="131" height="19" rx="2"/>
<text class="v" x="880" y="1121">0.286</text>
<text x="0" y="1149">logistic_regression_tau_0_5</text>
<rect class="bar" x="409" y="1134" width="130" height="19" rx="2"/>
<text class="v" x="880" y="1149">0.283</text>
<text x="0" y="1177">logistic_interactions_tau_0_5</text>
<rect class="bar" x="409" y="1162" width="129" height="19" rx="2"/>
<text class="v" x="880" y="1177">0.282</text>
<text x="0" y="1205">gradient_boosting_tau_0_5</text>
<rect class="bar" x="409" y="1190" width="124" height="19" rx="2"/>
<text class="v" x="880" y="1205">0.271</text>
<text x="0" y="1233">or_1_of_4</text>
<rect class="bar" x="409" y="1218" width="118" height="19" rx="2"/>
<text class="v" x="880" y="1233">0.257</text>
<text x="0" y="1261">dst_dempster_fire_specificity_silence_sensitivity_tau_0_8</text>
<rect class="bar" x="409" y="1246" width="118" height="19" rx="2"/>
<text class="v" x="880" y="1261">0.257</text>
<text x="0" y="1289">dst_dempster_fire_specificity_silence_sensitivity_tau_0_6</text>
<rect class="bar" x="409" y="1274" width="118" height="19" rx="2"/>
<text class="v" x="880" y="1289">0.257</text>
<text x="0" y="1317">weighted_fire_specificity_silence_sensitivity_tau_0_1</text>
<rect class="bar" x="409" y="1302" width="118" height="19" rx="2"/>
<text class="v" x="880" y="1317">0.257</text>
<text x="0" y="1345">weighted_fire_specificity_silence_sensitivity_tau_0_2</text>
<rect class="bar" x="409" y="1330" width="118" height="19" rx="2"/>
<text class="v" x="880" y="1345">0.257</text>
<text x="0" y="1373">weighted_fire_specificity_silence_sensitivity_tau_0_3</text>
<rect class="bar" x="409" y="1358" width="118" height="19" rx="2"/>
<text class="v" x="880" y="1373">0.257</text>
<text x="0" y="1401">weighted_fire_specificity_silence_sensitivity_tau_0_4</text>
<rect class="bar" x="409" y="1386" width="118" height="19" rx="2"/>
<text class="v" x="880" y="1401">0.257</text>
<text x="0" y="1429">dst_dempster_fire_specificity_silence_sensitivity_tau_0_7</text>
<rect class="bar" x="409" y="1414" width="118" height="19" rx="2"/>
<text class="v" x="880" y="1429">0.257</text>
<text x="0" y="1457">dst_yager_fire_specificity_silence_sensitivity_tau_0_6</text>
<rect class="bar" x="409" y="1442" width="118" height="19" rx="2"/>
<text class="v" x="880" y="1457">0.256</text>
<text x="0" y="1485">weighted_fire_specificity_silence_sensitivity_tau_0_5</text>
<rect class="bar" x="409" y="1470" width="118" height="19" rx="2"/>
<text class="v" x="880" y="1485">0.256</text>
<text x="0" y="1513">dst_pcr6_fire_specificity_silence_sensitivity_tau_0_6</text>
<rect class="bar" x="409" y="1498" width="118" height="19" rx="2"/>
<text class="v" x="880" y="1513">0.256</text>
<text x="0" y="1541">dst_pcr6_fire_specificity_silence_sensitivity_tau_0_7</text>
<rect class="bar" x="409" y="1526" width="118" height="19" rx="2"/>
<text class="v" x="880" y="1541">0.256</text>
<text x="0" y="1569">dst_pcr6_fire_specificity_silence_sensitivity_tau_0_8</text>
<rect class="bar" x="409" y="1554" width="115" height="19" rx="2"/>
<text class="v" x="880" y="1569">0.251</text>
<text x="0" y="1597">weighted_fire_specificity_silence_sensitivity_tau_0_6</text>
<rect class="bar" x="409" y="1582" width="115" height="19" rx="2"/>
<text class="v" x="880" y="1597">0.251</text>
<text x="0" y="1625">dst_yager_fire_specificity_silence_sensitivity_tau_0_7</text>
<rect class="bar" x="409" y="1610" width="115" height="19" rx="2"/>
<text class="v" x="880" y="1625">0.251</text>
<text x="0" y="1653">decision_tree_tau_0_6</text>
<rect class="bar" x="409" y="1638" width="110" height="19" rx="2"/>
<text class="v" x="880" y="1653">0.241</text>
<text x="0" y="1681">dst_dempster_fire_specificity_silence_sensitivity_tau_0_9</text>
<rect class="bar" x="409" y="1666" width="107" height="19" rx="2"/>
<text class="v" x="880" y="1681">0.233</text>
<text x="0" y="1709">gradient_boosting_tau_0_6</text>
<rect class="bar" x="409" y="1694" width="103" height="19" rx="2"/>
<text class="v" x="880" y="1709">0.224</text>
<text x="0" y="1737">logistic_interactions_tau_0_6</text>
<rect class="bar" x="409" y="1722" width="103" height="19" rx="2"/>
<text class="v" x="880" y="1737">0.224</text>
<text x="0" y="1765">logistic_regression_tau_0_6</text>
<rect class="bar" x="409" y="1750" width="102" height="19" rx="2"/>
<text class="v" x="880" y="1765">0.222</text>
<text x="0" y="1793">random_forest_tau_0_6</text>
<rect class="bar" x="409" y="1778" width="101" height="19" rx="2"/>
<text class="v" x="880" y="1793">0.220</text>
<text x="0" y="1821">weighted_fire_specificity_silence_sensitivity_tau_0_7</text>
<rect class="bar" x="409" y="1806" width="100" height="19" rx="2"/>
<text class="v" x="880" y="1821">0.219</text>
<text x="0" y="1849">dst_pcr6_fire_specificity_silence_sensitivity_tau_0_9</text>
<rect class="bar" x="409" y="1834" width="100" height="19" rx="2"/>
<text class="v" x="880" y="1849">0.218</text>
<text x="0" y="1877">dst_yager_fire_specificity_silence_sensitivity_tau_0_8</text>
<rect class="bar" x="409" y="1862" width="99" height="19" rx="2"/>
<text class="v" x="880" y="1877">0.216</text>
<text x="0" y="1905">naive_bayes_tau_0_2</text>
<rect class="bar" x="409" y="1890" width="94" height="19" rx="2"/>
<text class="v" x="880" y="1905">0.205</text>
<text x="0" y="1933">bks_tau_0_2</text>
<rect class="bar" x="409" y="1918" width="92" height="19" rx="2"/>
<text class="v" x="880" y="1933">0.200</text>
<text x="0" y="1961">weighted_fire_specificity_silence_sensitivity_tau_0_8</text>
<rect class="bar" x="409" y="1946" width="86" height="19" rx="2"/>
<text class="v" x="880" y="1961">0.188</text>
<text x="0" y="1989">random_forest_tau_0_7</text>
<rect class="bar" x="409" y="1974" width="80" height="19" rx="2"/>
<text class="v" x="880" y="1989">0.175</text>
<text x="0" y="2017">logistic_regression_tau_0_7</text>
<rect class="bar" x="409" y="2002" width="79" height="19" rx="2"/>
<text class="v" x="880" y="2017">0.173</text>
<text x="0" y="2045">gradient_boosting_tau_0_7</text>
<rect class="bar" x="409" y="2030" width="78" height="19" rx="2"/>
<text class="v" x="880" y="2045">0.171</text>
<text x="0" y="2073">logistic_interactions_tau_0_7</text>
<rect class="bar" x="409" y="2058" width="77" height="19" rx="2"/>
<text class="v" x="880" y="2073">0.168</text>
<text x="0" y="2101">decision_tree_tau_0_7</text>
<rect class="bar" x="409" y="2086" width="74" height="19" rx="2"/>
<text class="v" x="880" y="2101">0.162</text>
<text x="0" y="2129">dst_yager_fire_specificity_silence_sensitivity_tau_0_9</text>
<rect class="bar" x="409" y="2114" width="74" height="19" rx="2"/>
<text class="v" x="880" y="2129">0.161</text>
<text x="0" y="2157">weighted_fire_specificity_silence_sensitivity_tau_0_9</text>
<rect class="bar" x="409" y="2142" width="73" height="19" rx="2"/>
<text class="v" x="880" y="2157">0.160</text>
<text x="0" y="2185">tool:bandit</text>
<rect class="bar" x="409" y="2170" width="72" height="19" rx="2"/>
<text class="v" x="880" y="2185">0.157</text>
<text x="0" y="2213">naive_bayes_tau_0_3</text>
<rect class="bar" x="409" y="2198" width="71" height="19" rx="2"/>
<text class="v" x="880" y="2213">0.155</text>
<text x="0" y="2241">logistic_interactions_tau_0_8</text>
<rect class="bar" x="409" y="2226" width="69" height="19" rx="2"/>
<text class="v" x="880" y="2241">0.151</text>
<text x="0" y="2269">decision_tree_tau_0_8</text>
<rect class="bar" x="409" y="2254" width="69" height="19" rx="2"/>
<text class="v" x="880" y="2269">0.150</text>
<text x="0" y="2297">gradient_boosting_tau_0_8</text>
<rect class="bar" x="409" y="2282" width="66" height="19" rx="2"/>
<text class="v" x="880" y="2297">0.145</text>
<text x="0" y="2325">random_forest_tau_0_8</text>
<rect class="bar" x="409" y="2310" width="66" height="19" rx="2"/>
<text class="v" x="880" y="2325">0.144</text>
<text x="0" y="2353">logistic_regression_tau_0_8</text>
<rect class="bar" x="409" y="2338" width="64" height="19" rx="2"/>
<text class="v" x="880" y="2353">0.140</text>
<text x="0" y="2381">bks_tau_0_3</text>
<rect class="bar" x="409" y="2366" width="63" height="19" rx="2"/>
<text class="v" x="880" y="2381">0.137</text>
<text x="0" y="2409">naive_bayes_tau_0_4</text>
<rect class="bar" x="409" y="2394" width="51" height="19" rx="2"/>
<text class="v" x="880" y="2409">0.113</text>
<text x="0" y="2437">tool:semgrep</text>
<rect class="bar" x="409" y="2422" width="49" height="19" rx="2"/>
<text class="v" x="880" y="2437">0.107</text>
<text x="0" y="2465">traditional_2_of_4</text>
<rect class="bar" x="409" y="2450" width="47" height="19" rx="2"/>
<text class="v" x="880" y="2465">0.103</text>
<text x="0" y="2493">bks_tau_0_4</text>
<rect class="bar" x="409" y="2478" width="46" height="19" rx="2"/>
<text class="v" x="880" y="2493">0.102</text>
<text x="0" y="2521">naive_bayes_tau_0_5</text>
<rect class="bar" x="409" y="2506" width="46" height="19" rx="2"/>
<text class="v" x="880" y="2521">0.100</text>
<text x="0" y="2549">naive_bayes_tau_0_6</text>
<rect class="bar" x="409" y="2534" width="43" height="19" rx="2"/>
<text class="v" x="880" y="2549">0.094</text>
<text x="0" y="2577">tool:codeql</text>
<rect class="bar" x="409" y="2562" width="43" height="19" rx="2"/>
<text class="v" x="880" y="2577">0.094</text>
<text x="0" y="2605">naive_bayes_tau_0_7</text>
<rect class="bar" x="409" y="2590" width="40" height="19" rx="2"/>
<text class="v" x="880" y="2605">0.088</text>
<text x="0" y="2633">logistic_interactions_tau_0_9</text>
<rect class="bar" x="409" y="2618" width="34" height="19" rx="2"/>
<text class="v" x="880" y="2633">0.075</text>
<text x="0" y="2661">bks_tau_0_5</text>
<rect class="bar" x="409" y="2646" width="27" height="19" rx="2"/>
<text class="v" x="880" y="2661">0.059</text>
<text x="0" y="2689">naive_bayes_tau_0_8</text>
<rect class="bar" x="409" y="2674" width="24" height="19" rx="2"/>
<text class="v" x="880" y="2689">0.053</text>
<text x="0" y="2717">logistic_regression_tau_0_9</text>
<rect class="bar" x="409" y="2702" width="22" height="19" rx="2"/>
<text class="v" x="880" y="2717">0.049</text>
<text x="0" y="2745">bks_tau_0_6</text>
<rect class="bar" x="409" y="2730" width="20" height="19" rx="2"/>
<text class="v" x="880" y="2745">0.045</text>
<text x="0" y="2773">decision_tree_tau_0_9</text>
<rect class="bar" x="409" y="2758" width="19" height="19" rx="2"/>
<text class="v" x="880" y="2773">0.043</text>
<text x="0" y="2801">gradient_boosting_tau_0_9</text>
<rect class="bar" x="409" y="2786" width="19" height="19" rx="2"/>
<text class="v" x="880" y="2801">0.042</text>
<text x="0" y="2829">random_forest_tau_0_9</text>
<rect class="bar" x="409" y="2814" width="18" height="19" rx="2"/>
<text class="v" x="880" y="2829">0.040</text>
<text x="0" y="2857">tool:pylint</text>
<rect class="bar" x="409" y="2842" width="17" height="19" rx="2"/>
<text class="v" x="880" y="2857">0.038</text>
<text x="0" y="2885">bks_tau_0_7</text>
<rect class="bar" x="409" y="2870" width="11" height="19" rx="2"/>
<text class="v" x="880" y="2885">0.025</text>
<text x="0" y="2913">naive_bayes_tau_0_9</text>
<rect class="bar" x="409" y="2898" width="10" height="19" rx="2"/>
<text class="v" x="880" y="2913">0.024</text>
<text x="0" y="2941">bks_tau_0_8</text>
<rect class="bar" x="409" y="2926" width="2" height="19" rx="2"/>
<text class="v" x="880" y="2941">0.002</text>
<text x="0" y="2969">bks_tau_0_9</text>
<rect class="bar" x="409" y="2954" width="2" height="19" rx="2"/>
<text class="v" x="880" y="2969">0.000</text>
</svg>